ISO-10303-21;
HEADER;
/* Generated by software containing ST-Developer
 * from STEP Tools, Inc. (www.steptools.com) 
 */

FILE_DESCRIPTION(
/* description */ ('KiCad electronic assembly'),
/* implementation_level */ '2;1');

FILE_NAME(
/* name */ 'stardance hackpad enclosure top.step',
/* time_stamp */ '2026-08-08T18:51:39+10:00',
/* author */ (''),
/* organization */ (''),
/* preprocessor_version */ 'ST-DEVELOPER v20.1',
/* originating_system */ 'Autodesk Translation Framework v15.8.0.0',
/* authorisation */ '');

FILE_SCHEMA (('AUTOMOTIVE_DESIGN { 1 0 10303 214 3 1 1 }'));
ENDSEC;

DATA;
#10=MECHANICAL_DESIGN_GEOMETRIC_PRESENTATION_REPRESENTATION('',(#13),#1187);
#11=SHAPE_REPRESENTATION_RELATIONSHIP('SRR','None',#1193,#12);
#12=ADVANCED_BREP_SHAPE_REPRESENTATION('',(#14),#1186);
#13=STYLED_ITEM('',(#1202),#14);
#14=MANIFOLD_SOLID_BREP('Body2',#699);
#15=FACE_BOUND('',#112,.T.);
#16=FACE_BOUND('',#113,.T.);
#17=FACE_BOUND('',#114,.T.);
#18=FACE_BOUND('',#115,.T.);
#19=FACE_BOUND('',#116,.T.);
#20=FACE_BOUND('',#117,.T.);
#21=FACE_BOUND('',#118,.T.);
#22=FACE_BOUND('',#119,.T.);
#23=FACE_BOUND('',#120,.T.);
#24=FACE_BOUND('',#121,.T.);
#25=FACE_BOUND('',#122,.T.);
#26=FACE_BOUND('',#123,.T.);
#27=FACE_BOUND('',#131,.T.);
#28=FACE_BOUND('',#132,.T.);
#29=FACE_BOUND('',#133,.T.);
#30=FACE_BOUND('',#134,.T.);
#31=FACE_BOUND('',#135,.T.);
#32=FACE_BOUND('',#136,.T.);
#33=FACE_BOUND('',#137,.T.);
#34=FACE_BOUND('',#138,.T.);
#35=FACE_BOUND('',#139,.T.);
#36=FACE_BOUND('',#140,.T.);
#37=FACE_BOUND('',#141,.T.);
#38=FACE_BOUND('',#142,.T.);
#39=PLANE('',#734);
#40=PLANE('',#738);
#41=PLANE('',#742);
#42=PLANE('',#746);
#43=PLANE('',#750);
#44=PLANE('',#760);
#45=PLANE('',#764);
#46=PLANE('',#765);
#47=PLANE('',#771);
#48=PLANE('',#776);
#49=PLANE('',#777);
#50=PLANE('',#778);
#51=FACE_OUTER_BOUND('',#85,.T.);
#52=FACE_OUTER_BOUND('',#86,.T.);
#53=FACE_OUTER_BOUND('',#87,.T.);
#54=FACE_OUTER_BOUND('',#88,.T.);
#55=FACE_OUTER_BOUND('',#89,.T.);
#56=FACE_OUTER_BOUND('',#90,.T.);
#57=FACE_OUTER_BOUND('',#91,.T.);
#58=FACE_OUTER_BOUND('',#92,.T.);
#59=FACE_OUTER_BOUND('',#93,.T.);
#60=FACE_OUTER_BOUND('',#94,.T.);
#61=FACE_OUTER_BOUND('',#95,.T.);
#62=FACE_OUTER_BOUND('',#96,.T.);
#63=FACE_OUTER_BOUND('',#97,.T.);
#64=FACE_OUTER_BOUND('',#98,.T.);
#65=FACE_OUTER_BOUND('',#99,.T.);
#66=FACE_OUTER_BOUND('',#100,.T.);
#67=FACE_OUTER_BOUND('',#101,.T.);
#68=FACE_OUTER_BOUND('',#102,.T.);
#69=FACE_OUTER_BOUND('',#103,.T.);
#70=FACE_OUTER_BOUND('',#104,.T.);
#71=FACE_OUTER_BOUND('',#105,.T.);
#72=FACE_OUTER_BOUND('',#106,.T.);
#73=FACE_OUTER_BOUND('',#107,.T.);
#74=FACE_OUTER_BOUND('',#108,.T.);
#75=FACE_OUTER_BOUND('',#109,.T.);
#76=FACE_OUTER_BOUND('',#110,.T.);
#77=FACE_OUTER_BOUND('',#111,.T.);
#78=FACE_OUTER_BOUND('',#124,.T.);
#79=FACE_OUTER_BOUND('',#125,.T.);
#80=FACE_OUTER_BOUND('',#126,.T.);
#81=FACE_OUTER_BOUND('',#127,.T.);
#82=FACE_OUTER_BOUND('',#128,.T.);
#83=FACE_OUTER_BOUND('',#129,.T.);
#84=FACE_OUTER_BOUND('',#130,.T.);
#85=EDGE_LOOP('',(#451,#452,#453,#454));
#86=EDGE_LOOP('',(#455,#456,#457,#458));
#87=EDGE_LOOP('',(#459,#460,#461,#462));
#88=EDGE_LOOP('',(#463,#464,#465,#466));
#89=EDGE_LOOP('',(#467,#468,#469,#470));
#90=EDGE_LOOP('',(#471,#472,#473,#474));
#91=EDGE_LOOP('',(#475,#476,#477,#478));
#92=EDGE_LOOP('',(#479,#480,#481,#482));
#93=EDGE_LOOP('',(#483,#484,#485,#486));
#94=EDGE_LOOP('',(#487,#488,#489,#490));
#95=EDGE_LOOP('',(#491,#492,#493,#494));
#96=EDGE_LOOP('',(#495,#496,#497,#498));
#97=EDGE_LOOP('',(#499,#500,#501,#502));
#98=EDGE_LOOP('',(#503,#504,#505,#506));
#99=EDGE_LOOP('',(#507,#508,#509,#510));
#100=EDGE_LOOP('',(#511,#512,#513,#514));
#101=EDGE_LOOP('',(#515,#516,#517,#518));
#102=EDGE_LOOP('',(#519,#520,#521,#522));
#103=EDGE_LOOP('',(#523,#524,#525,#526));
#104=EDGE_LOOP('',(#527,#528,#529,#530));
#105=EDGE_LOOP('',(#531,#532,#533,#534));
#106=EDGE_LOOP('',(#535,#536,#537,#538));
#107=EDGE_LOOP('',(#539,#540,#541,#542));
#108=EDGE_LOOP('',(#543,#544,#545,#546));
#109=EDGE_LOOP('',(#547,#548,#549,#550));
#110=EDGE_LOOP('',(#551,#552,#553,#554));
#111=EDGE_LOOP('',(#555,#556,#557,#558,#559,#560,#561,#562));
#112=EDGE_LOOP('',(#563));
#113=EDGE_LOOP('',(#564));
#114=EDGE_LOOP('',(#565));
#115=EDGE_LOOP('',(#566));
#116=EDGE_LOOP('',(#567,#568,#569,#570,#571,#572));
#117=EDGE_LOOP('',(#573,#574,#575,#576,#577,#578,#579,#580));
#118=EDGE_LOOP('',(#581));
#119=EDGE_LOOP('',(#582));
#120=EDGE_LOOP('',(#583));
#121=EDGE_LOOP('',(#584));
#122=EDGE_LOOP('',(#585));
#123=EDGE_LOOP('',(#586));
#124=EDGE_LOOP('',(#587,#588,#589,#590));
#125=EDGE_LOOP('',(#591,#592,#593,#594));
#126=EDGE_LOOP('',(#595,#596,#597,#598));
#127=EDGE_LOOP('',(#599,#600,#601,#602));
#128=EDGE_LOOP('',(#603,#604,#605,#606));
#129=EDGE_LOOP('',(#607,#608,#609,#610));
#130=EDGE_LOOP('',(#611,#612,#613,#614,#615,#616,#617,#618));
#131=EDGE_LOOP('',(#619));
#132=EDGE_LOOP('',(#620));
#133=EDGE_LOOP('',(#621));
#134=EDGE_LOOP('',(#622));
#135=EDGE_LOOP('',(#623,#624,#625,#626,#627,#628));
#136=EDGE_LOOP('',(#629,#630,#631,#632,#633,#634,#635,#636));
#137=EDGE_LOOP('',(#637));
#138=EDGE_LOOP('',(#638));
#139=EDGE_LOOP('',(#639));
#140=EDGE_LOOP('',(#640));
#141=EDGE_LOOP('',(#641));
#142=EDGE_LOOP('',(#642));
#143=LINE('',#994,#195);
#144=LINE('',#1000,#196);
#145=LINE('',#1006,#197);
#146=LINE('',#1012,#198);
#147=LINE('',#1018,#199);
#148=LINE('',#1024,#200);
#149=LINE('',#1030,#201);
#150=LINE('',#1036,#202);
#151=LINE('',#1042,#203);
#152=LINE('',#1048,#204);
#153=LINE('',#1055,#205);
#154=LINE('',#1058,#206);
#155=LINE('',#1061,#207);
#156=LINE('',#1063,#208);
#157=LINE('',#1064,#209);
#158=LINE('',#1069,#210);
#159=LINE('',#1073,#211);
#160=LINE('',#1075,#212);
#161=LINE('',#1076,#213);
#162=LINE('',#1081,#214);
#163=LINE('',#1085,#215);
#164=LINE('',#1087,#216);
#165=LINE('',#1088,#217);
#166=LINE('',#1093,#218);
#167=LINE('',#1096,#219);
#168=LINE('',#1097,#220);
#169=LINE('',#1103,#221);
#170=LINE('',#1106,#222);
#171=LINE('',#1109,#223);
#172=LINE('',#1111,#224);
#173=LINE('',#1112,#225);
#174=LINE('',#1118,#226);
#175=LINE('',#1123,#227);
#176=LINE('',#1129,#228);
#177=LINE('',#1132,#229);
#178=LINE('',#1133,#230);
#179=LINE('',#1139,#231);
#180=LINE('',#1142,#232);
#181=LINE('',#1145,#233);
#182=LINE('',#1147,#234);
#183=LINE('',#1148,#235);
#184=LINE('',#1151,#236);
#185=LINE('',#1155,#237);
#186=LINE('',#1159,#238);
#187=LINE('',#1163,#239);
#188=LINE('',#1166,#240);
#189=LINE('',#1169,#241);
#190=LINE('',#1170,#242);
#191=LINE('',#1174,#243);
#192=LINE('',#1177,#244);
#193=LINE('',#1180,#245);
#194=LINE('',#1182,#246);
#195=VECTOR('',#785,1.41421358344651);
#196=VECTOR('',#792,2.06490060630614);
#197=VECTOR('',#799,4.00000005960464);
#198=VECTOR('',#806,5.10237569521173);
#199=VECTOR('',#813,3.03518672619678);
#200=VECTOR('',#820,2.12337407244199);
#201=VECTOR('',#827,1.45);
#202=VECTOR('',#834,1.45);
#203=VECTOR('',#841,1.45);
#204=VECTOR('',#848,1.45);
#205=VECTOR('',#855,10.);
#206=VECTOR('',#858,10.);
#207=VECTOR('',#861,10.);
#208=VECTOR('',#862,10.);
#209=VECTOR('',#863,10.);
#210=VECTOR('',#868,10.);
#211=VECTOR('',#873,10.);
#212=VECTOR('',#874,10.);
#213=VECTOR('',#875,10.);
#214=VECTOR('',#880,10.);
#215=VECTOR('',#885,10.);
#216=VECTOR('',#886,10.);
#217=VECTOR('',#887,10.);
#218=VECTOR('',#892,10.);
#219=VECTOR('',#897,10.);
#220=VECTOR('',#898,10.);
#221=VECTOR('',#903,10.);
#222=VECTOR('',#906,10.);
#223=VECTOR('',#909,10.);
#224=VECTOR('',#910,10.);
#225=VECTOR('',#911,10.);
#226=VECTOR('',#918,10.);
#227=VECTOR('',#923,10.);
#228=VECTOR('',#930,10.);
#229=VECTOR('',#935,10.);
#230=VECTOR('',#936,10.);
#231=VECTOR('',#941,10.);
#232=VECTOR('',#944,10.);
#233=VECTOR('',#947,10.);
#234=VECTOR('',#948,10.);
#235=VECTOR('',#949,10.);
#236=VECTOR('',#952,10.);
#237=VECTOR('',#955,10.);
#238=VECTOR('',#958,10.);
#239=VECTOR('',#963,10.);
#240=VECTOR('',#966,10.);
#241=VECTOR('',#969,10.);
#242=VECTOR('',#970,10.);
#243=VECTOR('',#975,10.);
#244=VECTOR('',#978,10.);
#245=VECTOR('',#983,10.);
#246=VECTOR('',#986,10.);
#247=CIRCLE('',#702,1.41421358344651);
#248=CIRCLE('',#703,1.41421358344651);
#249=CIRCLE('',#705,2.06490060630614);
#250=CIRCLE('',#706,2.06490060630614);
#251=CIRCLE('',#708,4.00000005960464);
#252=CIRCLE('',#709,4.00000005960464);
#253=CIRCLE('',#711,5.10237569521173);
#254=CIRCLE('',#712,5.10237569521173);
#255=CIRCLE('',#714,3.03518672619678);
#256=CIRCLE('',#715,3.03518672619678);
#257=CIRCLE('',#717,2.12337407244199);
#258=CIRCLE('',#718,2.12337407244199);
#259=CIRCLE('',#720,1.45);
#260=CIRCLE('',#721,1.45);
#261=CIRCLE('',#723,1.45);
#262=CIRCLE('',#724,1.45);
#263=CIRCLE('',#726,1.45);
#264=CIRCLE('',#727,1.45);
#265=CIRCLE('',#729,1.45);
#266=CIRCLE('',#730,1.45);
#267=CIRCLE('',#732,3.5);
#268=CIRCLE('',#733,3.5);
#269=CIRCLE('',#736,3.5);
#270=CIRCLE('',#737,3.5);
#271=CIRCLE('',#740,3.5);
#272=CIRCLE('',#741,3.5);
#273=CIRCLE('',#744,3.5);
#274=CIRCLE('',#745,3.5);
#275=CIRCLE('',#748,7.5);
#276=CIRCLE('',#749,7.5);
#277=CIRCLE('',#752,7.5);
#278=CIRCLE('',#753,7.5);
#279=CIRCLE('',#755,7.5);
#280=CIRCLE('',#756,7.5);
#281=CIRCLE('',#758,7.5);
#282=CIRCLE('',#759,7.5);
#283=CIRCLE('',#762,1.);
#284=CIRCLE('',#763,1.);
#285=CIRCLE('',#766,1.);
#286=CIRCLE('',#767,1.);
#287=CIRCLE('',#768,1.);
#288=CIRCLE('',#770,1.);
#289=CIRCLE('',#773,1.);
#290=CIRCLE('',#775,1.);
#291=VERTEX_POINT('',#991);
#292=VERTEX_POINT('',#993);
#293=VERTEX_POINT('',#997);
#294=VERTEX_POINT('',#999);
#295=VERTEX_POINT('',#1003);
#296=VERTEX_POINT('',#1005);
#297=VERTEX_POINT('',#1009);
#298=VERTEX_POINT('',#1011);
#299=VERTEX_POINT('',#1015);
#300=VERTEX_POINT('',#1017);
#301=VERTEX_POINT('',#1021);
#302=VERTEX_POINT('',#1023);
#303=VERTEX_POINT('',#1027);
#304=VERTEX_POINT('',#1029);
#305=VERTEX_POINT('',#1033);
#306=VERTEX_POINT('',#1035);
#307=VERTEX_POINT('',#1039);
#308=VERTEX_POINT('',#1041);
#309=VERTEX_POINT('',#1045);
#310=VERTEX_POINT('',#1047);
#311=VERTEX_POINT('',#1051);
#312=VERTEX_POINT('',#1052);
#313=VERTEX_POINT('',#1054);
#314=VERTEX_POINT('',#1056);
#315=VERTEX_POINT('',#1060);
#316=VERTEX_POINT('',#1062);
#317=VERTEX_POINT('',#1066);
#318=VERTEX_POINT('',#1068);
#319=VERTEX_POINT('',#1072);
#320=VERTEX_POINT('',#1074);
#321=VERTEX_POINT('',#1078);
#322=VERTEX_POINT('',#1080);
#323=VERTEX_POINT('',#1084);
#324=VERTEX_POINT('',#1086);
#325=VERTEX_POINT('',#1090);
#326=VERTEX_POINT('',#1092);
#327=VERTEX_POINT('',#1099);
#328=VERTEX_POINT('',#1100);
#329=VERTEX_POINT('',#1102);
#330=VERTEX_POINT('',#1104);
#331=VERTEX_POINT('',#1108);
#332=VERTEX_POINT('',#1110);
#333=VERTEX_POINT('',#1114);
#334=VERTEX_POINT('',#1116);
#335=VERTEX_POINT('',#1120);
#336=VERTEX_POINT('',#1122);
#337=VERTEX_POINT('',#1126);
#338=VERTEX_POINT('',#1128);
#339=VERTEX_POINT('',#1135);
#340=VERTEX_POINT('',#1136);
#341=VERTEX_POINT('',#1138);
#342=VERTEX_POINT('',#1140);
#343=VERTEX_POINT('',#1144);
#344=VERTEX_POINT('',#1146);
#345=VERTEX_POINT('',#1150);
#346=VERTEX_POINT('',#1152);
#347=VERTEX_POINT('',#1154);
#348=VERTEX_POINT('',#1156);
#349=VERTEX_POINT('',#1158);
#350=VERTEX_POINT('',#1162);
#351=VERTEX_POINT('',#1164);
#352=VERTEX_POINT('',#1168);
#353=VERTEX_POINT('',#1172);
#354=VERTEX_POINT('',#1176);
#355=EDGE_CURVE('',#291,#291,#247,.T.);
#356=EDGE_CURVE('',#291,#292,#143,.T.);
#357=EDGE_CURVE('',#292,#292,#248,.T.);
#358=EDGE_CURVE('',#293,#293,#249,.T.);
#359=EDGE_CURVE('',#293,#294,#144,.T.);
#360=EDGE_CURVE('',#294,#294,#250,.T.);
#361=EDGE_CURVE('',#295,#295,#251,.T.);
#362=EDGE_CURVE('',#295,#296,#145,.T.);
#363=EDGE_CURVE('',#296,#296,#252,.T.);
#364=EDGE_CURVE('',#297,#297,#253,.T.);
#365=EDGE_CURVE('',#297,#298,#146,.T.);
#366=EDGE_CURVE('',#298,#298,#254,.T.);
#367=EDGE_CURVE('',#299,#299,#255,.T.);
#368=EDGE_CURVE('',#299,#300,#147,.T.);
#369=EDGE_CURVE('',#300,#300,#256,.T.);
#370=EDGE_CURVE('',#301,#301,#257,.T.);
#371=EDGE_CURVE('',#301,#302,#148,.T.);
#372=EDGE_CURVE('',#302,#302,#258,.T.);
#373=EDGE_CURVE('',#303,#303,#259,.T.);
#374=EDGE_CURVE('',#303,#304,#149,.T.);
#375=EDGE_CURVE('',#304,#304,#260,.T.);
#376=EDGE_CURVE('',#305,#305,#261,.T.);
#377=EDGE_CURVE('',#305,#306,#150,.T.);
#378=EDGE_CURVE('',#306,#306,#262,.T.);
#379=EDGE_CURVE('',#307,#307,#263,.T.);
#380=EDGE_CURVE('',#307,#308,#151,.T.);
#381=EDGE_CURVE('',#308,#308,#264,.T.);
#382=EDGE_CURVE('',#309,#309,#265,.T.);
#383=EDGE_CURVE('',#309,#310,#152,.T.);
#384=EDGE_CURVE('',#310,#310,#266,.T.);
#385=EDGE_CURVE('',#311,#312,#267,.T.);
#386=EDGE_CURVE('',#312,#313,#153,.T.);
#387=EDGE_CURVE('',#313,#314,#268,.T.);
#388=EDGE_CURVE('',#314,#311,#154,.T.);
#389=EDGE_CURVE('',#312,#315,#155,.T.);
#390=EDGE_CURVE('',#316,#315,#156,.T.);
#391=EDGE_CURVE('',#313,#316,#157,.T.);
#392=EDGE_CURVE('',#315,#317,#269,.T.);
#393=EDGE_CURVE('',#317,#318,#158,.T.);
#394=EDGE_CURVE('',#318,#316,#270,.T.);
#395=EDGE_CURVE('',#317,#319,#159,.T.);
#396=EDGE_CURVE('',#320,#319,#160,.T.);
#397=EDGE_CURVE('',#318,#320,#161,.T.);
#398=EDGE_CURVE('',#319,#321,#271,.T.);
#399=EDGE_CURVE('',#321,#322,#162,.T.);
#400=EDGE_CURVE('',#322,#320,#272,.T.);
#401=EDGE_CURVE('',#321,#323,#163,.T.);
#402=EDGE_CURVE('',#324,#323,#164,.T.);
#403=EDGE_CURVE('',#322,#324,#165,.T.);
#404=EDGE_CURVE('',#323,#325,#273,.T.);
#405=EDGE_CURVE('',#325,#326,#166,.T.);
#406=EDGE_CURVE('',#326,#324,#274,.T.);
#407=EDGE_CURVE('',#326,#314,#167,.T.);
#408=EDGE_CURVE('',#325,#311,#168,.T.);
#409=EDGE_CURVE('',#327,#328,#275,.T.);
#410=EDGE_CURVE('',#328,#329,#169,.T.);
#411=EDGE_CURVE('',#329,#330,#276,.T.);
#412=EDGE_CURVE('',#327,#330,#170,.T.);
#413=EDGE_CURVE('',#328,#331,#171,.T.);
#414=EDGE_CURVE('',#332,#331,#172,.T.);
#415=EDGE_CURVE('',#329,#332,#173,.T.);
#416=EDGE_CURVE('',#333,#327,#277,.T.);
#417=EDGE_CURVE('',#330,#334,#278,.T.);
#418=EDGE_CURVE('',#334,#333,#174,.T.);
#419=EDGE_CURVE('',#331,#335,#279,.T.);
#420=EDGE_CURVE('',#336,#335,#175,.T.);
#421=EDGE_CURVE('',#336,#332,#280,.T.);
#422=EDGE_CURVE('',#335,#337,#281,.T.);
#423=EDGE_CURVE('',#337,#338,#176,.T.);
#424=EDGE_CURVE('',#338,#336,#282,.T.);
#425=EDGE_CURVE('',#338,#334,#177,.T.);
#426=EDGE_CURVE('',#337,#333,#178,.T.);
#427=EDGE_CURVE('',#339,#340,#283,.T.);
#428=EDGE_CURVE('',#340,#341,#179,.T.);
#429=EDGE_CURVE('',#341,#342,#284,.T.);
#430=EDGE_CURVE('',#342,#339,#180,.T.);
#431=EDGE_CURVE('',#343,#340,#181,.T.);
#432=EDGE_CURVE('',#344,#343,#182,.T.);
#433=EDGE_CURVE('',#344,#341,#183,.T.);
#434=EDGE_CURVE('',#339,#345,#184,.T.);
#435=EDGE_CURVE('',#346,#345,#285,.T.);
#436=EDGE_CURVE('',#346,#347,#185,.T.);
#437=EDGE_CURVE('',#348,#347,#286,.T.);
#438=EDGE_CURVE('',#348,#349,#186,.T.);
#439=EDGE_CURVE('',#343,#349,#287,.T.);
#440=EDGE_CURVE('',#345,#350,#187,.T.);
#441=EDGE_CURVE('',#350,#351,#288,.T.);
#442=EDGE_CURVE('',#351,#346,#188,.T.);
#443=EDGE_CURVE('',#351,#352,#189,.T.);
#444=EDGE_CURVE('',#347,#352,#190,.T.);
#445=EDGE_CURVE('',#352,#353,#289,.T.);
#446=EDGE_CURVE('',#353,#348,#191,.T.);
#447=EDGE_CURVE('',#349,#354,#192,.T.);
#448=EDGE_CURVE('',#354,#344,#290,.T.);
#449=EDGE_CURVE('',#353,#354,#193,.T.);
#450=EDGE_CURVE('',#342,#350,#194,.T.);
#451=ORIENTED_EDGE('',*,*,#355,.F.);
#452=ORIENTED_EDGE('',*,*,#356,.T.);
#453=ORIENTED_EDGE('',*,*,#357,.F.);
#454=ORIENTED_EDGE('',*,*,#356,.F.);
#455=ORIENTED_EDGE('',*,*,#358,.F.);
#456=ORIENTED_EDGE('',*,*,#359,.T.);
#457=ORIENTED_EDGE('',*,*,#360,.F.);
#458=ORIENTED_EDGE('',*,*,#359,.F.);
#459=ORIENTED_EDGE('',*,*,#361,.F.);
#460=ORIENTED_EDGE('',*,*,#362,.T.);
#461=ORIENTED_EDGE('',*,*,#363,.F.);
#462=ORIENTED_EDGE('',*,*,#362,.F.);
#463=ORIENTED_EDGE('',*,*,#364,.F.);
#464=ORIENTED_EDGE('',*,*,#365,.T.);
#465=ORIENTED_EDGE('',*,*,#366,.F.);
#466=ORIENTED_EDGE('',*,*,#365,.F.);
#467=ORIENTED_EDGE('',*,*,#367,.F.);
#468=ORIENTED_EDGE('',*,*,#368,.T.);
#469=ORIENTED_EDGE('',*,*,#369,.F.);
#470=ORIENTED_EDGE('',*,*,#368,.F.);
#471=ORIENTED_EDGE('',*,*,#370,.F.);
#472=ORIENTED_EDGE('',*,*,#371,.T.);
#473=ORIENTED_EDGE('',*,*,#372,.F.);
#474=ORIENTED_EDGE('',*,*,#371,.F.);
#475=ORIENTED_EDGE('',*,*,#373,.F.);
#476=ORIENTED_EDGE('',*,*,#374,.T.);
#477=ORIENTED_EDGE('',*,*,#375,.F.);
#478=ORIENTED_EDGE('',*,*,#374,.F.);
#479=ORIENTED_EDGE('',*,*,#376,.F.);
#480=ORIENTED_EDGE('',*,*,#377,.T.);
#481=ORIENTED_EDGE('',*,*,#378,.F.);
#482=ORIENTED_EDGE('',*,*,#377,.F.);
#483=ORIENTED_EDGE('',*,*,#379,.F.);
#484=ORIENTED_EDGE('',*,*,#380,.T.);
#485=ORIENTED_EDGE('',*,*,#381,.F.);
#486=ORIENTED_EDGE('',*,*,#380,.F.);
#487=ORIENTED_EDGE('',*,*,#382,.F.);
#488=ORIENTED_EDGE('',*,*,#383,.T.);
#489=ORIENTED_EDGE('',*,*,#384,.F.);
#490=ORIENTED_EDGE('',*,*,#383,.F.);
#491=ORIENTED_EDGE('',*,*,#385,.T.);
#492=ORIENTED_EDGE('',*,*,#386,.T.);
#493=ORIENTED_EDGE('',*,*,#387,.T.);
#494=ORIENTED_EDGE('',*,*,#388,.T.);
#495=ORIENTED_EDGE('',*,*,#386,.F.);
#496=ORIENTED_EDGE('',*,*,#389,.T.);
#497=ORIENTED_EDGE('',*,*,#390,.F.);
#498=ORIENTED_EDGE('',*,*,#391,.F.);
#499=ORIENTED_EDGE('',*,*,#392,.T.);
#500=ORIENTED_EDGE('',*,*,#393,.T.);
#501=ORIENTED_EDGE('',*,*,#394,.T.);
#502=ORIENTED_EDGE('',*,*,#390,.T.);
#503=ORIENTED_EDGE('',*,*,#393,.F.);
#504=ORIENTED_EDGE('',*,*,#395,.T.);
#505=ORIENTED_EDGE('',*,*,#396,.F.);
#506=ORIENTED_EDGE('',*,*,#397,.F.);
#507=ORIENTED_EDGE('',*,*,#398,.T.);
#508=ORIENTED_EDGE('',*,*,#399,.T.);
#509=ORIENTED_EDGE('',*,*,#400,.T.);
#510=ORIENTED_EDGE('',*,*,#396,.T.);
#511=ORIENTED_EDGE('',*,*,#399,.F.);
#512=ORIENTED_EDGE('',*,*,#401,.T.);
#513=ORIENTED_EDGE('',*,*,#402,.F.);
#514=ORIENTED_EDGE('',*,*,#403,.F.);
#515=ORIENTED_EDGE('',*,*,#404,.T.);
#516=ORIENTED_EDGE('',*,*,#405,.T.);
#517=ORIENTED_EDGE('',*,*,#406,.T.);
#518=ORIENTED_EDGE('',*,*,#402,.T.);
#519=ORIENTED_EDGE('',*,*,#388,.F.);
#520=ORIENTED_EDGE('',*,*,#407,.F.);
#521=ORIENTED_EDGE('',*,*,#405,.F.);
#522=ORIENTED_EDGE('',*,*,#408,.T.);
#523=ORIENTED_EDGE('',*,*,#409,.T.);
#524=ORIENTED_EDGE('',*,*,#410,.T.);
#525=ORIENTED_EDGE('',*,*,#411,.T.);
#526=ORIENTED_EDGE('',*,*,#412,.F.);
#527=ORIENTED_EDGE('',*,*,#410,.F.);
#528=ORIENTED_EDGE('',*,*,#413,.T.);
#529=ORIENTED_EDGE('',*,*,#414,.F.);
#530=ORIENTED_EDGE('',*,*,#415,.F.);
#531=ORIENTED_EDGE('',*,*,#416,.T.);
#532=ORIENTED_EDGE('',*,*,#412,.T.);
#533=ORIENTED_EDGE('',*,*,#417,.T.);
#534=ORIENTED_EDGE('',*,*,#418,.T.);
#535=ORIENTED_EDGE('',*,*,#419,.T.);
#536=ORIENTED_EDGE('',*,*,#420,.F.);
#537=ORIENTED_EDGE('',*,*,#421,.T.);
#538=ORIENTED_EDGE('',*,*,#414,.T.);
#539=ORIENTED_EDGE('',*,*,#422,.T.);
#540=ORIENTED_EDGE('',*,*,#423,.T.);
#541=ORIENTED_EDGE('',*,*,#424,.T.);
#542=ORIENTED_EDGE('',*,*,#420,.T.);
#543=ORIENTED_EDGE('',*,*,#418,.F.);
#544=ORIENTED_EDGE('',*,*,#425,.F.);
#545=ORIENTED_EDGE('',*,*,#423,.F.);
#546=ORIENTED_EDGE('',*,*,#426,.T.);
#547=ORIENTED_EDGE('',*,*,#427,.T.);
#548=ORIENTED_EDGE('',*,*,#428,.T.);
#549=ORIENTED_EDGE('',*,*,#429,.T.);
#550=ORIENTED_EDGE('',*,*,#430,.T.);
#551=ORIENTED_EDGE('',*,*,#428,.F.);
#552=ORIENTED_EDGE('',*,*,#431,.F.);
#553=ORIENTED_EDGE('',*,*,#432,.F.);
#554=ORIENTED_EDGE('',*,*,#433,.T.);
#555=ORIENTED_EDGE('',*,*,#427,.F.);
#556=ORIENTED_EDGE('',*,*,#434,.T.);
#557=ORIENTED_EDGE('',*,*,#435,.F.);
#558=ORIENTED_EDGE('',*,*,#436,.T.);
#559=ORIENTED_EDGE('',*,*,#437,.F.);
#560=ORIENTED_EDGE('',*,*,#438,.T.);
#561=ORIENTED_EDGE('',*,*,#439,.F.);
#562=ORIENTED_EDGE('',*,*,#431,.T.);
#563=ORIENTED_EDGE('',*,*,#373,.T.);
#564=ORIENTED_EDGE('',*,*,#376,.T.);
#565=ORIENTED_EDGE('',*,*,#379,.T.);
#566=ORIENTED_EDGE('',*,*,#382,.T.);
#567=ORIENTED_EDGE('',*,*,#415,.T.);
#568=ORIENTED_EDGE('',*,*,#421,.F.);
#569=ORIENTED_EDGE('',*,*,#424,.F.);
#570=ORIENTED_EDGE('',*,*,#425,.T.);
#571=ORIENTED_EDGE('',*,*,#417,.F.);
#572=ORIENTED_EDGE('',*,*,#411,.F.);
#573=ORIENTED_EDGE('',*,*,#391,.T.);
#574=ORIENTED_EDGE('',*,*,#394,.F.);
#575=ORIENTED_EDGE('',*,*,#397,.T.);
#576=ORIENTED_EDGE('',*,*,#400,.F.);
#577=ORIENTED_EDGE('',*,*,#403,.T.);
#578=ORIENTED_EDGE('',*,*,#406,.F.);
#579=ORIENTED_EDGE('',*,*,#407,.T.);
#580=ORIENTED_EDGE('',*,*,#387,.F.);
#581=ORIENTED_EDGE('',*,*,#370,.T.);
#582=ORIENTED_EDGE('',*,*,#367,.T.);
#583=ORIENTED_EDGE('',*,*,#364,.T.);
#584=ORIENTED_EDGE('',*,*,#361,.T.);
#585=ORIENTED_EDGE('',*,*,#358,.T.);
#586=ORIENTED_EDGE('',*,*,#355,.T.);
#587=ORIENTED_EDGE('',*,*,#435,.T.);
#588=ORIENTED_EDGE('',*,*,#440,.T.);
#589=ORIENTED_EDGE('',*,*,#441,.T.);
#590=ORIENTED_EDGE('',*,*,#442,.T.);
#591=ORIENTED_EDGE('',*,*,#442,.F.);
#592=ORIENTED_EDGE('',*,*,#443,.T.);
#593=ORIENTED_EDGE('',*,*,#444,.F.);
#594=ORIENTED_EDGE('',*,*,#436,.F.);
#595=ORIENTED_EDGE('',*,*,#437,.T.);
#596=ORIENTED_EDGE('',*,*,#444,.T.);
#597=ORIENTED_EDGE('',*,*,#445,.T.);
#598=ORIENTED_EDGE('',*,*,#446,.T.);
#599=ORIENTED_EDGE('',*,*,#439,.T.);
#600=ORIENTED_EDGE('',*,*,#447,.T.);
#601=ORIENTED_EDGE('',*,*,#448,.T.);
#602=ORIENTED_EDGE('',*,*,#432,.T.);
#603=ORIENTED_EDGE('',*,*,#446,.F.);
#604=ORIENTED_EDGE('',*,*,#449,.T.);
#605=ORIENTED_EDGE('',*,*,#447,.F.);
#606=ORIENTED_EDGE('',*,*,#438,.F.);
#607=ORIENTED_EDGE('',*,*,#430,.F.);
#608=ORIENTED_EDGE('',*,*,#450,.T.);
#609=ORIENTED_EDGE('',*,*,#440,.F.);
#610=ORIENTED_EDGE('',*,*,#434,.F.);
#611=ORIENTED_EDGE('',*,*,#429,.F.);
#612=ORIENTED_EDGE('',*,*,#433,.F.);
#613=ORIENTED_EDGE('',*,*,#448,.F.);
#614=ORIENTED_EDGE('',*,*,#449,.F.);
#615=ORIENTED_EDGE('',*,*,#445,.F.);
#616=ORIENTED_EDGE('',*,*,#443,.F.);
#617=ORIENTED_EDGE('',*,*,#441,.F.);
#618=ORIENTED_EDGE('',*,*,#450,.F.);
#619=ORIENTED_EDGE('',*,*,#375,.T.);
#620=ORIENTED_EDGE('',*,*,#378,.T.);
#621=ORIENTED_EDGE('',*,*,#381,.T.);
#622=ORIENTED_EDGE('',*,*,#384,.T.);
#623=ORIENTED_EDGE('',*,*,#409,.F.);
#624=ORIENTED_EDGE('',*,*,#416,.F.);
#625=ORIENTED_EDGE('',*,*,#426,.F.);
#626=ORIENTED_EDGE('',*,*,#422,.F.);
#627=ORIENTED_EDGE('',*,*,#419,.F.);
#628=ORIENTED_EDGE('',*,*,#413,.F.);
#629=ORIENTED_EDGE('',*,*,#385,.F.);
#630=ORIENTED_EDGE('',*,*,#408,.F.);
#631=ORIENTED_EDGE('',*,*,#404,.F.);
#632=ORIENTED_EDGE('',*,*,#401,.F.);
#633=ORIENTED_EDGE('',*,*,#398,.F.);
#634=ORIENTED_EDGE('',*,*,#395,.F.);
#635=ORIENTED_EDGE('',*,*,#392,.F.);
#636=ORIENTED_EDGE('',*,*,#389,.F.);
#637=ORIENTED_EDGE('',*,*,#372,.T.);
#638=ORIENTED_EDGE('',*,*,#369,.T.);
#639=ORIENTED_EDGE('',*,*,#366,.T.);
#640=ORIENTED_EDGE('',*,*,#363,.T.);
#641=ORIENTED_EDGE('',*,*,#360,.T.);
#642=ORIENTED_EDGE('',*,*,#357,.T.);
#643=CYLINDRICAL_SURFACE('',#701,1.41421358344651);
#644=CYLINDRICAL_SURFACE('',#704,2.06490060630614);
#645=CYLINDRICAL_SURFACE('',#707,4.00000005960464);
#646=CYLINDRICAL_SURFACE('',#710,5.10237569521173);
#647=CYLINDRICAL_SURFACE('',#713,3.03518672619678);
#648=CYLINDRICAL_SURFACE('',#716,2.12337407244199);
#649=CYLINDRICAL_SURFACE('',#719,1.45);
#650=CYLINDRICAL_SURFACE('',#722,1.45);
#651=CYLINDRICAL_SURFACE('',#725,1.45);
#652=CYLINDRICAL_SURFACE('',#728,1.45);
#653=CYLINDRICAL_SURFACE('',#731,3.5);
#654=CYLINDRICAL_SURFACE('',#735,3.5);
#655=CYLINDRICAL_SURFACE('',#739,3.5);
#656=CYLINDRICAL_SURFACE('',#743,3.5);
#657=CYLINDRICAL_SURFACE('',#747,7.5);
#658=CYLINDRICAL_SURFACE('',#751,7.5);
#659=CYLINDRICAL_SURFACE('',#754,7.5);
#660=CYLINDRICAL_SURFACE('',#757,7.5);
#661=CYLINDRICAL_SURFACE('',#761,1.);
#662=CYLINDRICAL_SURFACE('',#769,1.);
#663=CYLINDRICAL_SURFACE('',#772,1.);
#664=CYLINDRICAL_SURFACE('',#774,1.);
#665=ADVANCED_FACE('',(#51),#643,.F.);
#666=ADVANCED_FACE('',(#52),#644,.F.);
#667=ADVANCED_FACE('',(#53),#645,.F.);
#668=ADVANCED_FACE('',(#54),#646,.F.);
#669=ADVANCED_FACE('',(#55),#647,.F.);
#670=ADVANCED_FACE('',(#56),#648,.F.);
#671=ADVANCED_FACE('',(#57),#649,.F.);
#672=ADVANCED_FACE('',(#58),#650,.F.);
#673=ADVANCED_FACE('',(#59),#651,.F.);
#674=ADVANCED_FACE('',(#60),#652,.F.);
#675=ADVANCED_FACE('',(#61),#653,.F.);
#676=ADVANCED_FACE('',(#62),#39,.T.);
#677=ADVANCED_FACE('',(#63),#654,.F.);
#678=ADVANCED_FACE('',(#64),#40,.T.);
#679=ADVANCED_FACE('',(#65),#655,.F.);
#680=ADVANCED_FACE('',(#66),#41,.T.);
#681=ADVANCED_FACE('',(#67),#656,.F.);
#682=ADVANCED_FACE('',(#68),#42,.T.);
#683=ADVANCED_FACE('',(#69),#657,.F.);
#684=ADVANCED_FACE('',(#70),#43,.T.);
#685=ADVANCED_FACE('',(#71),#658,.F.);
#686=ADVANCED_FACE('',(#72),#659,.F.);
#687=ADVANCED_FACE('',(#73),#660,.F.);
#688=ADVANCED_FACE('',(#74),#44,.T.);
#689=ADVANCED_FACE('',(#75),#661,.T.);
#690=ADVANCED_FACE('',(#76),#45,.T.);
#691=ADVANCED_FACE('',(#77,#15,#16,#17,#18,#19,#20,#21,#22,#23,#24,#25,
#26),#46,.T.);
#692=ADVANCED_FACE('',(#78),#662,.T.);
#693=ADVANCED_FACE('',(#79),#47,.T.);
#694=ADVANCED_FACE('',(#80),#663,.T.);
#695=ADVANCED_FACE('',(#81),#664,.T.);
#696=ADVANCED_FACE('',(#82),#48,.T.);
#697=ADVANCED_FACE('',(#83),#49,.T.);
#698=ADVANCED_FACE('',(#84,#27,#28,#29,#30,#31,#32,#33,#34,#35,#36,#37,
#38),#50,.F.);
#699=CLOSED_SHELL('',(#665,#666,#667,#668,#669,#670,#671,#672,#673,#674,
#675,#676,#677,#678,#679,#680,#681,#682,#683,#684,#685,#686,#687,#688,#689,
#690,#691,#692,#693,#694,#695,#696,#697,#698));
#700=AXIS2_PLACEMENT_3D('',#989,#779,#780);
#701=AXIS2_PLACEMENT_3D('',#990,#781,#782);
#702=AXIS2_PLACEMENT_3D('',#992,#783,#784);
#703=AXIS2_PLACEMENT_3D('',#995,#786,#787);
#704=AXIS2_PLACEMENT_3D('',#996,#788,#789);
#705=AXIS2_PLACEMENT_3D('',#998,#790,#791);
#706=AXIS2_PLACEMENT_3D('',#1001,#793,#794);
#707=AXIS2_PLACEMENT_3D('',#1002,#795,#796);
#708=AXIS2_PLACEMENT_3D('',#1004,#797,#798);
#709=AXIS2_PLACEMENT_3D('',#1007,#800,#801);
#710=AXIS2_PLACEMENT_3D('',#1008,#802,#803);
#711=AXIS2_PLACEMENT_3D('',#1010,#804,#805);
#712=AXIS2_PLACEMENT_3D('',#1013,#807,#808);
#713=AXIS2_PLACEMENT_3D('',#1014,#809,#810);
#714=AXIS2_PLACEMENT_3D('',#1016,#811,#812);
#715=AXIS2_PLACEMENT_3D('',#1019,#814,#815);
#716=AXIS2_PLACEMENT_3D('',#1020,#816,#817);
#717=AXIS2_PLACEMENT_3D('',#1022,#818,#819);
#718=AXIS2_PLACEMENT_3D('',#1025,#821,#822);
#719=AXIS2_PLACEMENT_3D('',#1026,#823,#824);
#720=AXIS2_PLACEMENT_3D('',#1028,#825,#826);
#721=AXIS2_PLACEMENT_3D('',#1031,#828,#829);
#722=AXIS2_PLACEMENT_3D('',#1032,#830,#831);
#723=AXIS2_PLACEMENT_3D('',#1034,#832,#833);
#724=AXIS2_PLACEMENT_3D('',#1037,#835,#836);
#725=AXIS2_PLACEMENT_3D('',#1038,#837,#838);
#726=AXIS2_PLACEMENT_3D('',#1040,#839,#840);
#727=AXIS2_PLACEMENT_3D('',#1043,#842,#843);
#728=AXIS2_PLACEMENT_3D('',#1044,#844,#845);
#729=AXIS2_PLACEMENT_3D('',#1046,#846,#847);
#730=AXIS2_PLACEMENT_3D('',#1049,#849,#850);
#731=AXIS2_PLACEMENT_3D('',#1050,#851,#852);
#732=AXIS2_PLACEMENT_3D('',#1053,#853,#854);
#733=AXIS2_PLACEMENT_3D('',#1057,#856,#857);
#734=AXIS2_PLACEMENT_3D('',#1059,#859,#860);
#735=AXIS2_PLACEMENT_3D('',#1065,#864,#865);
#736=AXIS2_PLACEMENT_3D('',#1067,#866,#867);
#737=AXIS2_PLACEMENT_3D('',#1070,#869,#870);
#738=AXIS2_PLACEMENT_3D('',#1071,#871,#872);
#739=AXIS2_PLACEMENT_3D('',#1077,#876,#877);
#740=AXIS2_PLACEMENT_3D('',#1079,#878,#879);
#741=AXIS2_PLACEMENT_3D('',#1082,#881,#882);
#742=AXIS2_PLACEMENT_3D('',#1083,#883,#884);
#743=AXIS2_PLACEMENT_3D('',#1089,#888,#889);
#744=AXIS2_PLACEMENT_3D('',#1091,#890,#891);
#745=AXIS2_PLACEMENT_3D('',#1094,#893,#894);
#746=AXIS2_PLACEMENT_3D('',#1095,#895,#896);
#747=AXIS2_PLACEMENT_3D('',#1098,#899,#900);
#748=AXIS2_PLACEMENT_3D('',#1101,#901,#902);
#749=AXIS2_PLACEMENT_3D('',#1105,#904,#905);
#750=AXIS2_PLACEMENT_3D('',#1107,#907,#908);
#751=AXIS2_PLACEMENT_3D('',#1113,#912,#913);
#752=AXIS2_PLACEMENT_3D('',#1115,#914,#915);
#753=AXIS2_PLACEMENT_3D('',#1117,#916,#917);
#754=AXIS2_PLACEMENT_3D('',#1119,#919,#920);
#755=AXIS2_PLACEMENT_3D('',#1121,#921,#922);
#756=AXIS2_PLACEMENT_3D('',#1124,#924,#925);
#757=AXIS2_PLACEMENT_3D('',#1125,#926,#927);
#758=AXIS2_PLACEMENT_3D('',#1127,#928,#929);
#759=AXIS2_PLACEMENT_3D('',#1130,#931,#932);
#760=AXIS2_PLACEMENT_3D('',#1131,#933,#934);
#761=AXIS2_PLACEMENT_3D('',#1134,#937,#938);
#762=AXIS2_PLACEMENT_3D('',#1137,#939,#940);
#763=AXIS2_PLACEMENT_3D('',#1141,#942,#943);
#764=AXIS2_PLACEMENT_3D('',#1143,#945,#946);
#765=AXIS2_PLACEMENT_3D('',#1149,#950,#951);
#766=AXIS2_PLACEMENT_3D('',#1153,#953,#954);
#767=AXIS2_PLACEMENT_3D('',#1157,#956,#957);
#768=AXIS2_PLACEMENT_3D('',#1160,#959,#960);
#769=AXIS2_PLACEMENT_3D('',#1161,#961,#962);
#770=AXIS2_PLACEMENT_3D('',#1165,#964,#965);
#771=AXIS2_PLACEMENT_3D('',#1167,#967,#968);
#772=AXIS2_PLACEMENT_3D('',#1171,#971,#972);
#773=AXIS2_PLACEMENT_3D('',#1173,#973,#974);
#774=AXIS2_PLACEMENT_3D('',#1175,#976,#977);
#775=AXIS2_PLACEMENT_3D('',#1178,#979,#980);
#776=AXIS2_PLACEMENT_3D('',#1179,#981,#982);
#777=AXIS2_PLACEMENT_3D('',#1181,#984,#985);
#778=AXIS2_PLACEMENT_3D('',#1183,#987,#988);
#779=DIRECTION('axis',(0.,0.,1.));
#780=DIRECTION('refdir',(1.,0.,0.));
#781=DIRECTION('center_axis',(0.,0.,-1.));
#782=DIRECTION('ref_axis',(-1.,0.,0.));
#783=DIRECTION('center_axis',(0.,0.,-1.));
#784=DIRECTION('ref_axis',(-1.,0.,0.));
#785=DIRECTION('',(0.,0.,-1.));
#786=DIRECTION('center_axis',(0.,0.,1.));
#787=DIRECTION('ref_axis',(-1.,0.,0.));
#788=DIRECTION('center_axis',(0.,0.,-1.));
#789=DIRECTION('ref_axis',(-1.,0.,0.));
#790=DIRECTION('center_axis',(0.,0.,-1.));
#791=DIRECTION('ref_axis',(-1.,0.,0.));
#792=DIRECTION('',(0.,0.,-1.));
#793=DIRECTION('center_axis',(0.,0.,1.));
#794=DIRECTION('ref_axis',(-1.,0.,0.));
#795=DIRECTION('center_axis',(0.,0.,-1.));
#796=DIRECTION('ref_axis',(-1.,0.,0.));
#797=DIRECTION('center_axis',(0.,0.,-1.));
#798=DIRECTION('ref_axis',(-1.,0.,0.));
#799=DIRECTION('',(0.,0.,-1.));
#800=DIRECTION('center_axis',(0.,0.,1.));
#801=DIRECTION('ref_axis',(-1.,0.,0.));
#802=DIRECTION('center_axis',(0.,0.,-1.));
#803=DIRECTION('ref_axis',(-1.,0.,0.));
#804=DIRECTION('center_axis',(0.,0.,-1.));
#805=DIRECTION('ref_axis',(-1.,0.,0.));
#806=DIRECTION('',(0.,0.,-1.));
#807=DIRECTION('center_axis',(0.,0.,1.));
#808=DIRECTION('ref_axis',(-1.,0.,0.));
#809=DIRECTION('center_axis',(0.,0.,-1.));
#810=DIRECTION('ref_axis',(-1.,0.,0.));
#811=DIRECTION('center_axis',(0.,0.,-1.));
#812=DIRECTION('ref_axis',(-1.,0.,0.));
#813=DIRECTION('',(0.,0.,-1.));
#814=DIRECTION('center_axis',(0.,0.,1.));
#815=DIRECTION('ref_axis',(-1.,0.,0.));
#816=DIRECTION('center_axis',(0.,0.,-1.));
#817=DIRECTION('ref_axis',(-1.,0.,0.));
#818=DIRECTION('center_axis',(0.,0.,-1.));
#819=DIRECTION('ref_axis',(-1.,0.,0.));
#820=DIRECTION('',(0.,0.,-1.));
#821=DIRECTION('center_axis',(0.,0.,1.));
#822=DIRECTION('ref_axis',(-1.,0.,0.));
#823=DIRECTION('center_axis',(0.,0.,-1.));
#824=DIRECTION('ref_axis',(-1.,0.,0.));
#825=DIRECTION('center_axis',(0.,0.,-1.));
#826=DIRECTION('ref_axis',(-1.,0.,0.));
#827=DIRECTION('',(0.,0.,-1.));
#828=DIRECTION('center_axis',(0.,0.,1.));
#829=DIRECTION('ref_axis',(-1.,0.,0.));
#830=DIRECTION('center_axis',(0.,0.,-1.));
#831=DIRECTION('ref_axis',(-1.,0.,0.));
#832=DIRECTION('center_axis',(0.,0.,-1.));
#833=DIRECTION('ref_axis',(-1.,0.,0.));
#834=DIRECTION('',(0.,0.,-1.));
#835=DIRECTION('center_axis',(0.,0.,1.));
#836=DIRECTION('ref_axis',(-1.,0.,0.));
#837=DIRECTION('center_axis',(0.,0.,-1.));
#838=DIRECTION('ref_axis',(-1.,0.,0.));
#839=DIRECTION('center_axis',(0.,0.,-1.));
#840=DIRECTION('ref_axis',(-1.,0.,0.));
#841=DIRECTION('',(0.,0.,-1.));
#842=DIRECTION('center_axis',(0.,0.,1.));
#843=DIRECTION('ref_axis',(-1.,0.,0.));
#844=DIRECTION('center_axis',(0.,0.,-1.));
#845=DIRECTION('ref_axis',(-1.,0.,0.));
#846=DIRECTION('center_axis',(0.,0.,-1.));
#847=DIRECTION('ref_axis',(-1.,0.,0.));
#848=DIRECTION('',(0.,0.,-1.));
#849=DIRECTION('center_axis',(0.,0.,1.));
#850=DIRECTION('ref_axis',(-1.,0.,0.));
#851=DIRECTION('center_axis',(0.,0.,1.));
#852=DIRECTION('ref_axis',(0.707106781186551,-0.707106781186544,0.));
#853=DIRECTION('center_axis',(0.,0.,-1.));
#854=DIRECTION('ref_axis',(0.707106781186551,-0.707106781186544,0.));
#855=DIRECTION('',(0.,0.,1.));
#856=DIRECTION('center_axis',(0.,0.,1.));
#857=DIRECTION('ref_axis',(0.707106781186551,-0.707106781186544,0.));
#858=DIRECTION('',(0.,0.,-1.));
#859=DIRECTION('center_axis',(0.,1.,0.));
#860=DIRECTION('ref_axis',(-1.,0.,0.));
#861=DIRECTION('',(-1.,0.,0.));
#862=DIRECTION('',(0.,0.,-1.));
#863=DIRECTION('',(-1.,0.,0.));
#864=DIRECTION('center_axis',(0.,0.,1.));
#865=DIRECTION('ref_axis',(-0.707106781186544,-0.707106781186551,0.));
#866=DIRECTION('center_axis',(0.,0.,-1.));
#867=DIRECTION('ref_axis',(-0.707106781186544,-0.707106781186551,0.));
#868=DIRECTION('',(0.,0.,1.));
#869=DIRECTION('center_axis',(0.,0.,1.));
#870=DIRECTION('ref_axis',(-0.707106781186544,-0.707106781186551,0.));
#871=DIRECTION('center_axis',(1.,0.,0.));
#872=DIRECTION('ref_axis',(0.,1.,0.));
#873=DIRECTION('',(0.,1.,0.));
#874=DIRECTION('',(0.,0.,-1.));
#875=DIRECTION('',(0.,1.,0.));
#876=DIRECTION('center_axis',(0.,0.,1.));
#877=DIRECTION('ref_axis',(-0.707106781186549,0.707106781186546,0.));
#878=DIRECTION('center_axis',(0.,0.,-1.));
#879=DIRECTION('ref_axis',(-0.707106781186549,0.707106781186546,0.));
#880=DIRECTION('',(0.,0.,1.));
#881=DIRECTION('center_axis',(0.,0.,1.));
#882=DIRECTION('ref_axis',(-0.707106781186549,0.707106781186546,0.));
#883=DIRECTION('center_axis',(0.,-1.,0.));
#884=DIRECTION('ref_axis',(1.,0.,0.));
#885=DIRECTION('',(1.,0.,0.));
#886=DIRECTION('',(0.,0.,-1.));
#887=DIRECTION('',(1.,0.,0.));
#888=DIRECTION('center_axis',(0.,0.,1.));
#889=DIRECTION('ref_axis',(0.707106781186549,0.707106781186546,0.));
#890=DIRECTION('center_axis',(0.,0.,-1.));
#891=DIRECTION('ref_axis',(0.707106781186549,0.707106781186546,0.));
#892=DIRECTION('',(0.,0.,1.));
#893=DIRECTION('center_axis',(0.,0.,1.));
#894=DIRECTION('ref_axis',(0.707106781186549,0.707106781186546,0.));
#895=DIRECTION('center_axis',(-1.,0.,0.));
#896=DIRECTION('ref_axis',(0.,-1.,0.));
#897=DIRECTION('',(0.,-1.,0.));
#898=DIRECTION('',(0.,-1.,0.));
#899=DIRECTION('center_axis',(0.,0.,1.));
#900=DIRECTION('ref_axis',(0.707106781186547,-0.707106781186547,0.));
#901=DIRECTION('center_axis',(0.,0.,-1.));
#902=DIRECTION('ref_axis',(0.707106781186547,-0.707106781186547,0.));
#903=DIRECTION('',(0.,0.,1.));
#904=DIRECTION('center_axis',(0.,0.,1.));
#905=DIRECTION('ref_axis',(0.707106781186547,-0.707106781186547,0.));
#906=DIRECTION('',(0.,0.,1.));
#907=DIRECTION('center_axis',(0.,1.,0.));
#908=DIRECTION('ref_axis',(-1.,0.,0.));
#909=DIRECTION('',(-1.,0.,0.));
#910=DIRECTION('',(0.,0.,-1.));
#911=DIRECTION('',(-1.,0.,0.));
#912=DIRECTION('center_axis',(0.,0.,1.));
#913=DIRECTION('ref_axis',(0.707106781186547,0.707106781186547,0.));
#914=DIRECTION('center_axis',(0.,0.,-1.));
#915=DIRECTION('ref_axis',(0.707106781186547,0.707106781186547,0.));
#916=DIRECTION('center_axis',(0.,0.,1.));
#917=DIRECTION('ref_axis',(0.707106781186547,0.707106781186547,0.));
#918=DIRECTION('',(0.,0.,-1.));
#919=DIRECTION('center_axis',(0.,0.,1.));
#920=DIRECTION('ref_axis',(-0.707106781186547,-0.707106781186547,0.));
#921=DIRECTION('center_axis',(0.,0.,-1.));
#922=DIRECTION('ref_axis',(-0.707106781186547,-0.707106781186547,0.));
#923=DIRECTION('',(0.,0.,-1.));
#924=DIRECTION('center_axis',(0.,0.,1.));
#925=DIRECTION('ref_axis',(-0.707106781186547,-0.707106781186547,0.));
#926=DIRECTION('center_axis',(0.,0.,1.));
#927=DIRECTION('ref_axis',(-0.707106781186547,0.707106781186547,0.));
#928=DIRECTION('center_axis',(0.,0.,-1.));
#929=DIRECTION('ref_axis',(-0.707106781186547,0.707106781186547,0.));
#930=DIRECTION('',(0.,0.,1.));
#931=DIRECTION('center_axis',(0.,0.,1.));
#932=DIRECTION('ref_axis',(-0.707106781186547,0.707106781186547,0.));
#933=DIRECTION('center_axis',(0.,-1.,0.));
#934=DIRECTION('ref_axis',(1.,0.,0.));
#935=DIRECTION('',(1.,0.,0.));
#936=DIRECTION('',(1.,0.,0.));
#937=DIRECTION('center_axis',(0.,0.,1.));
#938=DIRECTION('ref_axis',(-0.707106781186548,-0.707106781186548,0.));
#939=DIRECTION('center_axis',(0.,0.,-1.));
#940=DIRECTION('ref_axis',(-0.707106781186548,-0.707106781186548,0.));
#941=DIRECTION('',(0.,0.,-1.));
#942=DIRECTION('center_axis',(0.,0.,1.));
#943=DIRECTION('ref_axis',(-0.707106781186548,-0.707106781186548,0.));
#944=DIRECTION('',(0.,0.,1.));
#945=DIRECTION('center_axis',(-1.,0.,0.));
#946=DIRECTION('ref_axis',(0.,-1.,0.));
#947=DIRECTION('',(0.,-1.,0.));
#948=DIRECTION('',(0.,0.,1.));
#949=DIRECTION('',(0.,-1.,0.));
#950=DIRECTION('center_axis',(0.,0.,1.));
#951=DIRECTION('ref_axis',(1.,0.,0.));
#952=DIRECTION('',(1.,0.,0.));
#953=DIRECTION('center_axis',(0.,0.,-1.));
#954=DIRECTION('ref_axis',(0.707106781186548,-0.707106781186548,0.));
#955=DIRECTION('',(0.,1.,0.));
#956=DIRECTION('center_axis',(0.,0.,-1.));
#957=DIRECTION('ref_axis',(0.707106781186554,0.707106781186541,0.));
#958=DIRECTION('',(-1.,0.,0.));
#959=DIRECTION('center_axis',(0.,0.,-1.));
#960=DIRECTION('ref_axis',(-0.707106781186554,0.707106781186541,0.));
#961=DIRECTION('center_axis',(0.,0.,1.));
#962=DIRECTION('ref_axis',(0.707106781186548,-0.707106781186548,0.));
#963=DIRECTION('',(0.,0.,-1.));
#964=DIRECTION('center_axis',(0.,0.,1.));
#965=DIRECTION('ref_axis',(0.707106781186548,-0.707106781186548,0.));
#966=DIRECTION('',(0.,0.,1.));
#967=DIRECTION('center_axis',(1.,0.,0.));
#968=DIRECTION('ref_axis',(0.,1.,0.));
#969=DIRECTION('',(0.,1.,0.));
#970=DIRECTION('',(0.,0.,-1.));
#971=DIRECTION('center_axis',(0.,0.,1.));
#972=DIRECTION('ref_axis',(0.707106781186554,0.707106781186541,0.));
#973=DIRECTION('center_axis',(0.,0.,1.));
#974=DIRECTION('ref_axis',(0.707106781186554,0.707106781186541,0.));
#975=DIRECTION('',(0.,0.,1.));
#976=DIRECTION('center_axis',(0.,0.,1.));
#977=DIRECTION('ref_axis',(-0.707106781186554,0.707106781186541,0.));
#978=DIRECTION('',(0.,0.,-1.));
#979=DIRECTION('center_axis',(0.,0.,1.));
#980=DIRECTION('ref_axis',(-0.707106781186554,0.707106781186541,0.));
#981=DIRECTION('center_axis',(0.,1.,0.));
#982=DIRECTION('ref_axis',(-1.,0.,0.));
#983=DIRECTION('',(-1.,0.,0.));
#984=DIRECTION('center_axis',(0.,-1.,0.));
#985=DIRECTION('ref_axis',(1.,0.,0.));
#986=DIRECTION('',(1.,0.,0.));
#987=DIRECTION('center_axis',(0.,0.,1.));
#988=DIRECTION('ref_axis',(-1.,0.,0.));
#989=CARTESIAN_POINT('',(0.,0.,0.));
#990=CARTESIAN_POINT('Origin',(179.000002667308,-47.0000007003546,16.));
#991=CARTESIAN_POINT('',(180.414216250754,-47.0000007003546,16.));
#992=CARTESIAN_POINT('Origin',(179.000002667308,-47.0000007003546,16.));
#993=CARTESIAN_POINT('',(180.414216250754,-47.0000007003546,12.));
#994=CARTESIAN_POINT('',(180.414216250754,-47.0000007003546,16.));
#995=CARTESIAN_POINT('Origin',(179.000002667308,-47.0000007003546,12.));
#996=CARTESIAN_POINT('Origin',(129.00000192225,-63.0000009387732,16.));
#997=CARTESIAN_POINT('',(131.064902528556,-63.0000009387732,16.));
#998=CARTESIAN_POINT('Origin',(129.00000192225,-63.0000009387732,16.));
#999=CARTESIAN_POINT('',(131.064902528556,-63.0000009387732,12.));
#1000=CARTESIAN_POINT('',(131.064902528556,-63.0000009387732,16.));
#1001=CARTESIAN_POINT('Origin',(129.00000192225,-63.0000009387732,12.));
#1002=CARTESIAN_POINT('Origin',(190.000002831221,-63.0000009387732,16.));
#1003=CARTESIAN_POINT('',(194.000002890825,-63.0000009387732,16.));
#1004=CARTESIAN_POINT('Origin',(190.000002831221,-63.0000009387732,16.));
#1005=CARTESIAN_POINT('',(194.000002890825,-63.0000009387732,12.));
#1006=CARTESIAN_POINT('',(194.000002890825,-63.0000009387732,16.));
#1007=CARTESIAN_POINT('Origin',(190.000002831221,-63.0000009387732,12.));
#1008=CARTESIAN_POINT('Origin',(186.000002771616,-53.0000007897615,16.));
#1009=CARTESIAN_POINT('',(191.102378466828,-53.0000007897615,16.));
#1010=CARTESIAN_POINT('Origin',(186.000002771616,-53.0000007897615,16.));
#1011=CARTESIAN_POINT('',(191.102378466828,-53.0000007897615,12.));
#1012=CARTESIAN_POINT('',(191.102378466828,-53.0000007897615,16.));
#1013=CARTESIAN_POINT('Origin',(186.000002771616,-53.0000007897615,12.));
#1014=CARTESIAN_POINT('Origin',(131.000001952052,-51.0000007599592,16.));
#1015=CARTESIAN_POINT('',(134.035188678249,-51.0000007599592,16.));
#1016=CARTESIAN_POINT('Origin',(131.000001952052,-51.0000007599592,16.));
#1017=CARTESIAN_POINT('',(134.035188678249,-51.0000007599592,12.));
#1018=CARTESIAN_POINT('',(134.035188678249,-51.0000007599592,16.));
#1019=CARTESIAN_POINT('Origin',(131.000001952052,-51.0000007599592,12.));
#1020=CARTESIAN_POINT('Origin',(123.000001832843,-54.0000008046627,16.));
#1021=CARTESIAN_POINT('',(125.123375905285,-54.0000008046627,16.));
#1022=CARTESIAN_POINT('Origin',(123.000001832843,-54.0000008046627,16.));
#1023=CARTESIAN_POINT('',(125.123375905285,-54.0000008046627,12.));
#1024=CARTESIAN_POINT('',(125.123375905285,-54.0000008046627,16.));
#1025=CARTESIAN_POINT('Origin',(123.000001832843,-54.0000008046627,12.));
#1026=CARTESIAN_POINT('Origin',(194.000001817942,-44.0000006705523,16.));
#1027=CARTESIAN_POINT('',(195.450001817942,-44.0000006705523,16.));
#1028=CARTESIAN_POINT('Origin',(194.000001817942,-44.0000006705523,16.));
#1029=CARTESIAN_POINT('',(195.450001817942,-44.0000006705523,12.));
#1030=CARTESIAN_POINT('',(195.450001817942,-44.0000006705523,16.));
#1031=CARTESIAN_POINT('Origin',(194.000001817942,-44.0000006705523,12.));
#1032=CARTESIAN_POINT('Origin',(122.000001817942,-45.0000006705523,16.));
#1033=CARTESIAN_POINT('',(123.450001817942,-45.0000006705523,16.));
#1034=CARTESIAN_POINT('Origin',(122.000001817942,-45.0000006705523,16.));
#1035=CARTESIAN_POINT('',(123.450001817942,-45.0000006705523,12.));
#1036=CARTESIAN_POINT('',(123.450001817942,-45.0000006705523,16.));
#1037=CARTESIAN_POINT('Origin',(122.000001817942,-45.0000006705523,12.));
#1038=CARTESIAN_POINT('Origin',(194.000001817942,-98.0000006705523,16.));
#1039=CARTESIAN_POINT('',(195.450001817942,-98.0000006705523,16.));
#1040=CARTESIAN_POINT('Origin',(194.000001817942,-98.0000006705523,16.));
#1041=CARTESIAN_POINT('',(195.450001817942,-98.0000006705523,12.));
#1042=CARTESIAN_POINT('',(195.450001817942,-98.0000006705523,16.));
#1043=CARTESIAN_POINT('Origin',(194.000001817942,-98.0000006705523,12.));
#1044=CARTESIAN_POINT('Origin',(122.000001817942,-98.0000006705523,16.));
#1045=CARTESIAN_POINT('',(123.450001817942,-98.0000006705523,16.));
#1046=CARTESIAN_POINT('Origin',(122.000001817942,-98.0000006705523,16.));
#1047=CARTESIAN_POINT('',(123.450001817942,-98.0000006705523,12.));
#1048=CARTESIAN_POINT('',(123.450001817942,-98.0000006705523,16.));
#1049=CARTESIAN_POINT('Origin',(122.000001817942,-98.0000006705523,12.));
#1050=CARTESIAN_POINT('Origin',(184.500002801418,-89.500001385808,12.));
#1051=CARTESIAN_POINT('',(188.000002801418,-89.500001385808,12.));
#1052=CARTESIAN_POINT('',(184.500002801418,-93.000001385808,12.));
#1053=CARTESIAN_POINT('Origin',(184.500002801418,-89.500001385808,12.));
#1054=CARTESIAN_POINT('',(184.500002801418,-93.000001385808,16.));
#1055=CARTESIAN_POINT('',(184.500002801418,-93.000001385808,12.));
#1056=CARTESIAN_POINT('',(188.000002801418,-89.500001385808,16.));
#1057=CARTESIAN_POINT('Origin',(184.500002801418,-89.500001385808,16.));
#1058=CARTESIAN_POINT('',(188.000002801418,-89.500001385808,12.));
#1059=CARTESIAN_POINT('Origin',(188.000002801418,-93.000001385808,12.));
#1060=CARTESIAN_POINT('',(130.500001892447,-93.000001385808,12.));
#1061=CARTESIAN_POINT('',(188.000002801418,-93.000001385808,12.));
#1062=CARTESIAN_POINT('',(130.500001892447,-93.000001385808,16.));
#1063=CARTESIAN_POINT('',(130.500001892447,-93.000001385808,12.));
#1064=CARTESIAN_POINT('',(188.000002801418,-93.000001385808,16.));
#1065=CARTESIAN_POINT('Origin',(130.500001892447,-89.500001385808,12.));
#1066=CARTESIAN_POINT('',(127.000001892447,-89.500001385808,12.));
#1067=CARTESIAN_POINT('Origin',(130.500001892447,-89.500001385808,12.));
#1068=CARTESIAN_POINT('',(127.000001892447,-89.500001385808,16.));
#1069=CARTESIAN_POINT('',(127.000001892447,-89.500001385808,12.));
#1070=CARTESIAN_POINT('Origin',(130.500001892447,-89.500001385808,16.));
#1071=CARTESIAN_POINT('Origin',(127.000001892447,-93.000001385808,12.));
#1072=CARTESIAN_POINT('',(127.000001892447,-73.5000010430813,12.));
#1073=CARTESIAN_POINT('',(127.000001892447,-93.000001385808,12.));
#1074=CARTESIAN_POINT('',(127.000001892447,-73.5000010430813,16.));
#1075=CARTESIAN_POINT('',(127.000001892447,-73.5000010430813,12.));
#1076=CARTESIAN_POINT('',(127.000001892447,-93.000001385808,16.));
#1077=CARTESIAN_POINT('Origin',(130.500001892447,-73.5000010430813,12.));
#1078=CARTESIAN_POINT('',(130.500001892447,-70.0000010430813,12.));
#1079=CARTESIAN_POINT('Origin',(130.500001892447,-73.5000010430813,12.));
#1080=CARTESIAN_POINT('',(130.500001892447,-70.0000010430813,16.));
#1081=CARTESIAN_POINT('',(130.500001892447,-70.0000010430813,12.));
#1082=CARTESIAN_POINT('Origin',(130.500001892447,-73.5000010430813,16.));
#1083=CARTESIAN_POINT('Origin',(127.000001892447,-70.0000010430813,12.));
#1084=CARTESIAN_POINT('',(184.500002801418,-70.0000010430813,12.));
#1085=CARTESIAN_POINT('',(127.000001892447,-70.0000010430813,12.));
#1086=CARTESIAN_POINT('',(184.500002801418,-70.0000010430813,16.));
#1087=CARTESIAN_POINT('',(184.500002801418,-70.0000010430813,12.));
#1088=CARTESIAN_POINT('',(127.000001892447,-70.0000010430813,16.));
#1089=CARTESIAN_POINT('Origin',(184.500002801418,-73.5000010430813,12.));
#1090=CARTESIAN_POINT('',(188.000002801418,-73.5000010430813,12.));
#1091=CARTESIAN_POINT('Origin',(184.500002801418,-73.5000010430813,12.));
#1092=CARTESIAN_POINT('',(188.000002801418,-73.5000010430813,16.));
#1093=CARTESIAN_POINT('',(188.000002801418,-73.5000010430813,12.));
#1094=CARTESIAN_POINT('Origin',(184.500002801418,-73.5000010430813,16.));
#1095=CARTESIAN_POINT('Origin',(188.000002801418,-70.0000010430813,12.));
#1096=CARTESIAN_POINT('',(188.000002801418,-70.0000010430813,16.));
#1097=CARTESIAN_POINT('',(188.000002801418,-70.0000010430813,12.));
#1098=CARTESIAN_POINT('Origin',(170.500002652407,-59.5000009983778,12.));
#1099=CARTESIAN_POINT('',(178.000002652407,-59.5000007748604,12.));
#1100=CARTESIAN_POINT('',(170.500002652407,-67.0000009983778,12.));
#1101=CARTESIAN_POINT('Origin',(170.500002652407,-59.5000009983778,12.));
#1102=CARTESIAN_POINT('',(170.500002652407,-67.0000009983778,16.));
#1103=CARTESIAN_POINT('',(170.500002652407,-67.0000009983778,12.));
#1104=CARTESIAN_POINT('',(178.000002652407,-59.5000007748604,16.));
#1105=CARTESIAN_POINT('Origin',(170.500002652407,-59.5000009983778,16.));
#1106=CARTESIAN_POINT('',(178.000002652407,-59.5000007748604,12.));
#1107=CARTESIAN_POINT('Origin',(178.000002652407,-67.0000009983778,12.));
#1108=CARTESIAN_POINT('',(143.500002026558,-67.0000009983778,12.));
#1109=CARTESIAN_POINT('',(178.000002652407,-67.0000009983778,12.));
#1110=CARTESIAN_POINT('',(143.500002026558,-67.0000009983778,16.));
#1111=CARTESIAN_POINT('',(143.500002026558,-67.0000009983778,12.));
#1112=CARTESIAN_POINT('',(178.000002652407,-67.0000009983778,16.));
#1113=CARTESIAN_POINT('Origin',(170.500002652407,-59.5000007748604,12.));
#1114=CARTESIAN_POINT('',(170.500002652407,-52.0000007748604,12.));
#1115=CARTESIAN_POINT('Origin',(170.500002652407,-59.5000007748604,12.));
#1116=CARTESIAN_POINT('',(170.500002652407,-52.0000007748604,16.));
#1117=CARTESIAN_POINT('Origin',(170.500002652407,-59.5000007748604,16.));
#1118=CARTESIAN_POINT('',(170.500002652407,-52.0000007748604,12.));
#1119=CARTESIAN_POINT('Origin',(143.500002026558,-59.5000009983778,12.));
#1120=CARTESIAN_POINT('',(136.000002026558,-59.5000007748604,12.));
#1121=CARTESIAN_POINT('Origin',(143.500002026558,-59.5000009983778,12.));
#1122=CARTESIAN_POINT('',(136.000002026558,-59.5000007748604,16.));
#1123=CARTESIAN_POINT('',(136.000002026558,-59.5000007748604,12.));
#1124=CARTESIAN_POINT('Origin',(143.500002026558,-59.5000009983778,16.));
#1125=CARTESIAN_POINT('Origin',(143.500002026558,-59.5000007748604,12.));
#1126=CARTESIAN_POINT('',(143.500002026558,-52.0000007748604,12.));
#1127=CARTESIAN_POINT('Origin',(143.500002026558,-59.5000007748604,12.));
#1128=CARTESIAN_POINT('',(143.500002026558,-52.0000007748604,16.));
#1129=CARTESIAN_POINT('',(143.500002026558,-52.0000007748604,12.));
#1130=CARTESIAN_POINT('Origin',(143.500002026558,-59.5000007748604,16.));
#1131=CARTESIAN_POINT('Origin',(136.000002026558,-52.0000007748604,12.));
#1132=CARTESIAN_POINT('',(136.000002026558,-52.0000007748604,16.));
#1133=CARTESIAN_POINT('',(136.000002026558,-52.0000007748604,12.));
#1134=CARTESIAN_POINT('Origin',(118.487115811492,-101.000001519919,12.));
#1135=CARTESIAN_POINT('',(118.487115811492,-102.000001519919,16.));
#1136=CARTESIAN_POINT('',(117.487115811492,-101.000001519919,16.));
#1137=CARTESIAN_POINT('Origin',(118.487115811492,-101.000001519919,16.));
#1138=CARTESIAN_POINT('',(117.487115811492,-101.000001519919,12.));
#1139=CARTESIAN_POINT('',(117.487115811492,-101.000001519919,12.));
#1140=CARTESIAN_POINT('',(118.487115811492,-102.000001519919,12.));
#1141=CARTESIAN_POINT('Origin',(118.487115811492,-101.000001519919,12.));
#1142=CARTESIAN_POINT('',(118.487115811492,-102.000001519919,12.));
#1143=CARTESIAN_POINT('Origin',(117.487115811492,-39.6912956129554,12.));
#1144=CARTESIAN_POINT('',(117.487115811492,-40.6912956129554,16.));
#1145=CARTESIAN_POINT('',(117.487115811492,-39.6912956129554,16.));
#1146=CARTESIAN_POINT('',(117.487115811492,-40.6912956129554,12.));
#1147=CARTESIAN_POINT('',(117.487115811492,-40.6912956129554,12.));
#1148=CARTESIAN_POINT('',(117.487115811492,-39.6912956129554,12.));
#1149=CARTESIAN_POINT('Origin',(158.243559388412,-70.8456485664371,16.));
#1150=CARTESIAN_POINT('',(198.000002965332,-102.000001519919,16.));
#1151=CARTESIAN_POINT('',(117.487115811492,-102.000001519919,16.));
#1152=CARTESIAN_POINT('',(199.000002965332,-101.000001519919,16.));
#1153=CARTESIAN_POINT('Origin',(198.000002965332,-101.000001519919,16.));
#1154=CARTESIAN_POINT('',(199.000002965332,-40.6912956129554,16.));
#1155=CARTESIAN_POINT('',(199.000002965332,-102.000001519919,16.));
#1156=CARTESIAN_POINT('',(198.000002965332,-39.6912956129554,16.));
#1157=CARTESIAN_POINT('Origin',(198.000002965332,-40.6912956129554,16.));
#1158=CARTESIAN_POINT('',(118.487115811492,-39.6912956129554,16.));
#1159=CARTESIAN_POINT('',(199.000002965332,-39.6912956129554,16.));
#1160=CARTESIAN_POINT('Origin',(118.487115811492,-40.6912956129554,16.));
#1161=CARTESIAN_POINT('Origin',(198.000002965332,-101.000001519919,12.));
#1162=CARTESIAN_POINT('',(198.000002965332,-102.000001519919,12.));
#1163=CARTESIAN_POINT('',(198.000002965332,-102.000001519919,12.));
#1164=CARTESIAN_POINT('',(199.000002965332,-101.000001519919,12.));
#1165=CARTESIAN_POINT('Origin',(198.000002965332,-101.000001519919,12.));
#1166=CARTESIAN_POINT('',(199.000002965332,-101.000001519919,12.));
#1167=CARTESIAN_POINT('Origin',(199.000002965332,-102.000001519919,12.));
#1168=CARTESIAN_POINT('',(199.000002965332,-40.6912956129554,12.));
#1169=CARTESIAN_POINT('',(199.000002965332,-102.000001519919,12.));
#1170=CARTESIAN_POINT('',(199.000002965332,-40.6912956129554,12.));
#1171=CARTESIAN_POINT('Origin',(198.000002965332,-40.6912956129554,12.));
#1172=CARTESIAN_POINT('',(198.000002965332,-39.6912956129554,12.));
#1173=CARTESIAN_POINT('Origin',(198.000002965332,-40.6912956129554,12.));
#1174=CARTESIAN_POINT('',(198.000002965332,-39.6912956129554,12.));
#1175=CARTESIAN_POINT('Origin',(118.487115811492,-40.6912956129554,12.));
#1176=CARTESIAN_POINT('',(118.487115811492,-39.6912956129554,12.));
#1177=CARTESIAN_POINT('',(118.487115811492,-39.6912956129554,12.));
#1178=CARTESIAN_POINT('Origin',(118.487115811492,-40.6912956129554,12.));
#1179=CARTESIAN_POINT('Origin',(199.000002965332,-39.6912956129554,12.));
#1180=CARTESIAN_POINT('',(199.000002965332,-39.6912956129554,12.));
#1181=CARTESIAN_POINT('Origin',(117.487115811492,-102.000001519919,12.));
#1182=CARTESIAN_POINT('',(117.487115811492,-102.000001519919,12.));
#1183=CARTESIAN_POINT('Origin',(158.243559388412,-70.8456485664371,12.));
#1184=UNCERTAINTY_MEASURE_WITH_UNIT(LENGTH_MEASURE(0.01),#1188,
'DISTANCE_ACCURACY_VALUE',
'Maximum model space distance between geometric entities at asserted c
onnectivities');
#1185=UNCERTAINTY_MEASURE_WITH_UNIT(LENGTH_MEASURE(0.01),#1188,
'DISTANCE_ACCURACY_VALUE',
'Maximum model space distance between geometric entities at asserted c
onnectivities');
#1186=(
GEOMETRIC_REPRESENTATION_CONTEXT(3)
GLOBAL_UNCERTAINTY_ASSIGNED_CONTEXT((#1184))
GLOBAL_UNIT_ASSIGNED_CONTEXT((#1188,#1189,#1190))
REPRESENTATION_CONTEXT('','3D')
);
#1187=(
GEOMETRIC_REPRESENTATION_CONTEXT(3)
GLOBAL_UNCERTAINTY_ASSIGNED_CONTEXT((#1185))
GLOBAL_UNIT_ASSIGNED_CONTEXT((#1188,#1189,#1190))
REPRESENTATION_CONTEXT('','3D')
);
#1188=(
LENGTH_UNIT()
NAMED_UNIT(*)
SI_UNIT(.MILLI.,.METRE.)
);
#1189=(
NAMED_UNIT(*)
PLANE_ANGLE_UNIT()
SI_UNIT($,.RADIAN.)
);
#1190=(
NAMED_UNIT(*)
SI_UNIT($,.STERADIAN.)
SOLID_ANGLE_UNIT()
);
#1191=SHAPE_DEFINITION_REPRESENTATION(#1192,#1193);
#1192=PRODUCT_DEFINITION_SHAPE('',$,#1195);
#1193=SHAPE_REPRESENTATION('',(#700),#1186);
#1194=PRODUCT_DEFINITION_CONTEXT('part definition',#1199,'design');
#1195=PRODUCT_DEFINITION('stardance hackpad 1','stardance hackpad',#1196,
#1194);
#1196=PRODUCT_DEFINITION_FORMATION('',$,#1201);
#1197=PRODUCT_RELATED_PRODUCT_CATEGORY('stardance hackpad',
'stardance hackpad',(#1201));
#1198=APPLICATION_PROTOCOL_DEFINITION('international standard',
'automotive_design',2009,#1199);
#1199=APPLICATION_CONTEXT(
'Core Data for Automotive Mechanical Design Process');
#1200=PRODUCT_CONTEXT('part definition',#1199,'mechanical');
#1201=PRODUCT('stardance hackpad 1','stardance hackpad',
'KiCad electronic assembly',(#1200));
#1202=PRESENTATION_STYLE_ASSIGNMENT((#1203));
#1203=SURFACE_STYLE_USAGE(.BOTH.,#1204);
#1204=SURFACE_SIDE_STYLE('',(#1205));
#1205=SURFACE_STYLE_FILL_AREA(#1206);
#1206=FILL_AREA_STYLE('Steel - Satin',(#1207));
#1207=FILL_AREA_STYLE_COLOUR('Steel - Satin',#1208);
#1208=COLOUR_RGB('Steel - Satin',0.627450980392157,0.627450980392157,0.627450980392157);
ENDSEC;
END-ISO-10303-21;
