ISO-10303-21;
HEADER;
/* Generated by software containing ST-Developer
 * from STEP Tools, Inc. (www.steptools.com) 
 */

FILE_DESCRIPTION(
/* description */ ('KiCad electronic assembly'),
/* implementation_level */ '2;1');

FILE_NAME(
/* name */ 'stardance hackpad enclosure bottom.step',
/* time_stamp */ '2026-08-08T18:51:24+10:00',
/* author */ (''),
/* organization */ (''),
/* preprocessor_version */ 'ST-DEVELOPER v20.1',
/* originating_system */ 'Autodesk Translation Framework v15.8.0.0',
/* authorisation */ '');

FILE_SCHEMA (('AUTOMOTIVE_DESIGN { 1 0 10303 214 3 1 1 }'));
ENDSEC;

DATA;
#10=MECHANICAL_DESIGN_GEOMETRIC_PRESENTATION_REPRESENTATION('',(#13),#1025);
#11=SHAPE_REPRESENTATION_RELATIONSHIP('SRR','None',#1031,#12);
#12=ADVANCED_BREP_SHAPE_REPRESENTATION('',(#14),#1024);
#13=STYLED_ITEM('',(#1040),#14);
#14=MANIFOLD_SOLID_BREP('Body1',#605);
#15=FACE_BOUND('',#94,.T.);
#16=FACE_BOUND('',#96,.T.);
#17=FACE_BOUND('',#97,.T.);
#18=FACE_BOUND('',#98,.T.);
#19=FACE_BOUND('',#99,.T.);
#20=FACE_BOUND('',#107,.T.);
#21=FACE_BOUND('',#109,.T.);
#22=FACE_BOUND('',#110,.T.);
#23=FACE_BOUND('',#111,.T.);
#24=FACE_BOUND('',#112,.T.);
#25=FACE_BOUND('',#113,.T.);
#26=PLANE('',#619);
#27=PLANE('',#623);
#28=PLANE('',#627);
#29=PLANE('',#631);
#30=PLANE('',#638);
#31=PLANE('',#642);
#32=PLANE('',#645);
#33=PLANE('',#648);
#34=PLANE('',#654);
#35=PLANE('',#655);
#36=PLANE('',#661);
#37=PLANE('',#664);
#38=PLANE('',#667);
#39=PLANE('',#668);
#40=PLANE('',#669);
#41=FACE_OUTER_BOUND('',#72,.T.);
#42=FACE_OUTER_BOUND('',#73,.T.);
#43=FACE_OUTER_BOUND('',#74,.T.);
#44=FACE_OUTER_BOUND('',#75,.T.);
#45=FACE_OUTER_BOUND('',#76,.T.);
#46=FACE_OUTER_BOUND('',#77,.T.);
#47=FACE_OUTER_BOUND('',#78,.T.);
#48=FACE_OUTER_BOUND('',#79,.T.);
#49=FACE_OUTER_BOUND('',#80,.T.);
#50=FACE_OUTER_BOUND('',#81,.T.);
#51=FACE_OUTER_BOUND('',#82,.T.);
#52=FACE_OUTER_BOUND('',#83,.T.);
#53=FACE_OUTER_BOUND('',#84,.T.);
#54=FACE_OUTER_BOUND('',#85,.T.);
#55=FACE_OUTER_BOUND('',#86,.T.);
#56=FACE_OUTER_BOUND('',#87,.T.);
#57=FACE_OUTER_BOUND('',#88,.T.);
#58=FACE_OUTER_BOUND('',#89,.T.);
#59=FACE_OUTER_BOUND('',#90,.T.);
#60=FACE_OUTER_BOUND('',#91,.T.);
#61=FACE_OUTER_BOUND('',#92,.T.);
#62=FACE_OUTER_BOUND('',#93,.T.);
#63=FACE_OUTER_BOUND('',#95,.T.);
#64=FACE_OUTER_BOUND('',#100,.T.);
#65=FACE_OUTER_BOUND('',#101,.T.);
#66=FACE_OUTER_BOUND('',#102,.T.);
#67=FACE_OUTER_BOUND('',#103,.T.);
#68=FACE_OUTER_BOUND('',#104,.T.);
#69=FACE_OUTER_BOUND('',#105,.T.);
#70=FACE_OUTER_BOUND('',#106,.T.);
#71=FACE_OUTER_BOUND('',#108,.T.);
#72=EDGE_LOOP('',(#390,#391,#392,#393));
#73=EDGE_LOOP('',(#394,#395,#396,#397));
#74=EDGE_LOOP('',(#398,#399,#400,#401));
#75=EDGE_LOOP('',(#402,#403,#404,#405));
#76=EDGE_LOOP('',(#406,#407,#408,#409));
#77=EDGE_LOOP('',(#410,#411,#412,#413));
#78=EDGE_LOOP('',(#414,#415,#416,#417));
#79=EDGE_LOOP('',(#418,#419,#420,#421));
#80=EDGE_LOOP('',(#422,#423,#424,#425));
#81=EDGE_LOOP('',(#426,#427,#428,#429));
#82=EDGE_LOOP('',(#430,#431,#432,#433));
#83=EDGE_LOOP('',(#434,#435,#436,#437));
#84=EDGE_LOOP('',(#438,#439,#440,#441));
#85=EDGE_LOOP('',(#442,#443,#444,#445,#446,#447,#448,#449));
#86=EDGE_LOOP('',(#450,#451,#452,#453));
#87=EDGE_LOOP('',(#454,#455,#456,#457));
#88=EDGE_LOOP('',(#458,#459,#460,#461));
#89=EDGE_LOOP('',(#462,#463,#464,#465));
#90=EDGE_LOOP('',(#466,#467,#468,#469));
#91=EDGE_LOOP('',(#470,#471,#472,#473));
#92=EDGE_LOOP('',(#474,#475,#476,#477));
#93=EDGE_LOOP('',(#478,#479,#480,#481));
#94=EDGE_LOOP('',(#482,#483,#484,#485,#486,#487,#488,#489));
#95=EDGE_LOOP('',(#490,#491,#492,#493,#494,#495,#496,#497));
#96=EDGE_LOOP('',(#498));
#97=EDGE_LOOP('',(#499));
#98=EDGE_LOOP('',(#500));
#99=EDGE_LOOP('',(#501));
#100=EDGE_LOOP('',(#502,#503,#504,#505));
#101=EDGE_LOOP('',(#506,#507,#508,#509));
#102=EDGE_LOOP('',(#510,#511,#512,#513));
#103=EDGE_LOOP('',(#514,#515,#516,#517));
#104=EDGE_LOOP('',(#518,#519,#520,#521));
#105=EDGE_LOOP('',(#522,#523,#524,#525));
#106=EDGE_LOOP('',(#526,#527,#528,#529));
#107=EDGE_LOOP('',(#530,#531,#532,#533,#534,#535,#536,#537));
#108=EDGE_LOOP('',(#538,#539,#540,#541,#542,#543,#544,#545));
#109=EDGE_LOOP('',(#546,#547,#548,#549,#550,#551,#552,#553));
#110=EDGE_LOOP('',(#554));
#111=EDGE_LOOP('',(#555));
#112=EDGE_LOOP('',(#556));
#113=EDGE_LOOP('',(#557));
#114=LINE('',#855,#166);
#115=LINE('',#861,#167);
#116=LINE('',#867,#168);
#117=LINE('',#873,#169);
#118=LINE('',#878,#170);
#119=LINE('',#880,#171);
#120=LINE('',#882,#172);
#121=LINE('',#883,#173);
#122=LINE('',#889,#174);
#123=LINE('',#892,#175);
#124=LINE('',#894,#176);
#125=LINE('',#895,#177);
#126=LINE('',#901,#178);
#127=LINE('',#904,#179);
#128=LINE('',#906,#180);
#129=LINE('',#907,#181);
#130=LINE('',#913,#182);
#131=LINE('',#916,#183);
#132=LINE('',#918,#184);
#133=LINE('',#919,#185);
#134=LINE('',#928,#186);
#135=LINE('',#931,#187);
#136=LINE('',#934,#188);
#137=LINE('',#938,#189);
#138=LINE('',#942,#190);
#139=LINE('',#945,#191);
#140=LINE('',#948,#192);
#141=LINE('',#949,#193);
#142=LINE('',#952,#194);
#143=LINE('',#955,#195);
#144=LINE('',#958,#196);
#145=LINE('',#959,#197);
#146=LINE('',#962,#198);
#147=LINE('',#966,#199);
#148=LINE('',#967,#200);
#149=LINE('',#975,#201);
#150=LINE('',#978,#202);
#151=LINE('',#981,#203);
#152=LINE('',#983,#204);
#153=LINE('',#984,#205);
#154=LINE('',#987,#206);
#155=LINE('',#991,#207);
#156=LINE('',#995,#208);
#157=LINE('',#1000,#209);
#158=LINE('',#1003,#210);
#159=LINE('',#1004,#211);
#160=LINE('',#1007,#212);
#161=LINE('',#1011,#213);
#162=LINE('',#1012,#214);
#163=LINE('',#1016,#215);
#164=LINE('',#1018,#216);
#165=LINE('',#1020,#217);
#166=VECTOR('',#676,1.45);
#167=VECTOR('',#683,1.45);
#168=VECTOR('',#690,1.45);
#169=VECTOR('',#697,1.45);
#170=VECTOR('',#702,10.);
#171=VECTOR('',#703,10.);
#172=VECTOR('',#704,10.);
#173=VECTOR('',#705,10.);
#174=VECTOR('',#712,10.);
#175=VECTOR('',#715,10.);
#176=VECTOR('',#716,10.);
#177=VECTOR('',#717,10.);
#178=VECTOR('',#724,10.);
#179=VECTOR('',#727,10.);
#180=VECTOR('',#728,10.);
#181=VECTOR('',#729,10.);
#182=VECTOR('',#736,10.);
#183=VECTOR('',#739,10.);
#184=VECTOR('',#740,10.);
#185=VECTOR('',#741,10.);
#186=VECTOR('',#752,10.);
#187=VECTOR('',#755,10.);
#188=VECTOR('',#758,10.);
#189=VECTOR('',#761,10.);
#190=VECTOR('',#764,10.);
#191=VECTOR('',#767,10.);
#192=VECTOR('',#770,10.);
#193=VECTOR('',#771,10.);
#194=VECTOR('',#774,10.);
#195=VECTOR('',#777,10.);
#196=VECTOR('',#780,10.);
#197=VECTOR('',#781,10.);
#198=VECTOR('',#784,10.);
#199=VECTOR('',#789,10.);
#200=VECTOR('',#790,10.);
#201=VECTOR('',#799,10.);
#202=VECTOR('',#802,10.);
#203=VECTOR('',#805,10.);
#204=VECTOR('',#806,10.);
#205=VECTOR('',#807,10.);
#206=VECTOR('',#810,10.);
#207=VECTOR('',#813,10.);
#208=VECTOR('',#816,10.);
#209=VECTOR('',#823,10.);
#210=VECTOR('',#826,10.);
#211=VECTOR('',#827,10.);
#212=VECTOR('',#830,10.);
#213=VECTOR('',#835,10.);
#214=VECTOR('',#836,10.);
#215=VECTOR('',#841,10.);
#216=VECTOR('',#844,10.);
#217=VECTOR('',#847,10.);
#218=CIRCLE('',#608,1.45);
#219=CIRCLE('',#609,1.45);
#220=CIRCLE('',#611,1.45);
#221=CIRCLE('',#612,1.45);
#222=CIRCLE('',#614,1.45);
#223=CIRCLE('',#615,1.45);
#224=CIRCLE('',#617,1.45);
#225=CIRCLE('',#618,1.45);
#226=CIRCLE('',#621,1.00000000000001);
#227=CIRCLE('',#622,1.00000000000001);
#228=CIRCLE('',#625,0.999999999999997);
#229=CIRCLE('',#626,0.999999999999997);
#230=CIRCLE('',#629,0.999999999999996);
#231=CIRCLE('',#630,0.999999999999996);
#232=CIRCLE('',#633,1.00000000000002);
#233=CIRCLE('',#634,1.00000000000002);
#234=CIRCLE('',#636,5.);
#235=CIRCLE('',#637,5.);
#236=CIRCLE('',#639,5.);
#237=CIRCLE('',#640,5.);
#238=CIRCLE('',#641,5.);
#239=CIRCLE('',#644,5.);
#240=CIRCLE('',#647,5.);
#241=CIRCLE('',#650,5.);
#242=CIRCLE('',#652,1.);
#243=CIRCLE('',#653,1.);
#244=CIRCLE('',#656,1.);
#245=CIRCLE('',#657,1.);
#246=CIRCLE('',#658,1.);
#247=CIRCLE('',#660,1.);
#248=CIRCLE('',#663,1.);
#249=CIRCLE('',#666,1.);
#250=VERTEX_POINT('',#852);
#251=VERTEX_POINT('',#854);
#252=VERTEX_POINT('',#858);
#253=VERTEX_POINT('',#860);
#254=VERTEX_POINT('',#864);
#255=VERTEX_POINT('',#866);
#256=VERTEX_POINT('',#870);
#257=VERTEX_POINT('',#872);
#258=VERTEX_POINT('',#876);
#259=VERTEX_POINT('',#877);
#260=VERTEX_POINT('',#879);
#261=VERTEX_POINT('',#881);
#262=VERTEX_POINT('',#885);
#263=VERTEX_POINT('',#887);
#264=VERTEX_POINT('',#891);
#265=VERTEX_POINT('',#893);
#266=VERTEX_POINT('',#897);
#267=VERTEX_POINT('',#899);
#268=VERTEX_POINT('',#903);
#269=VERTEX_POINT('',#905);
#270=VERTEX_POINT('',#909);
#271=VERTEX_POINT('',#911);
#272=VERTEX_POINT('',#915);
#273=VERTEX_POINT('',#917);
#274=VERTEX_POINT('',#924);
#275=VERTEX_POINT('',#925);
#276=VERTEX_POINT('',#927);
#277=VERTEX_POINT('',#929);
#278=VERTEX_POINT('',#933);
#279=VERTEX_POINT('',#935);
#280=VERTEX_POINT('',#937);
#281=VERTEX_POINT('',#939);
#282=VERTEX_POINT('',#941);
#283=VERTEX_POINT('',#943);
#284=VERTEX_POINT('',#947);
#285=VERTEX_POINT('',#951);
#286=VERTEX_POINT('',#953);
#287=VERTEX_POINT('',#957);
#288=VERTEX_POINT('',#961);
#289=VERTEX_POINT('',#965);
#290=VERTEX_POINT('',#971);
#291=VERTEX_POINT('',#972);
#292=VERTEX_POINT('',#974);
#293=VERTEX_POINT('',#976);
#294=VERTEX_POINT('',#980);
#295=VERTEX_POINT('',#982);
#296=VERTEX_POINT('',#986);
#297=VERTEX_POINT('',#988);
#298=VERTEX_POINT('',#990);
#299=VERTEX_POINT('',#992);
#300=VERTEX_POINT('',#994);
#301=VERTEX_POINT('',#998);
#302=VERTEX_POINT('',#1002);
#303=VERTEX_POINT('',#1006);
#304=VERTEX_POINT('',#1010);
#305=VERTEX_POINT('',#1014);
#306=EDGE_CURVE('',#250,#250,#218,.T.);
#307=EDGE_CURVE('',#250,#251,#114,.T.);
#308=EDGE_CURVE('',#251,#251,#219,.T.);
#309=EDGE_CURVE('',#252,#252,#220,.T.);
#310=EDGE_CURVE('',#252,#253,#115,.T.);
#311=EDGE_CURVE('',#253,#253,#221,.T.);
#312=EDGE_CURVE('',#254,#254,#222,.T.);
#313=EDGE_CURVE('',#254,#255,#116,.T.);
#314=EDGE_CURVE('',#255,#255,#223,.T.);
#315=EDGE_CURVE('',#256,#256,#224,.T.);
#316=EDGE_CURVE('',#256,#257,#117,.T.);
#317=EDGE_CURVE('',#257,#257,#225,.T.);
#318=EDGE_CURVE('',#258,#259,#118,.T.);
#319=EDGE_CURVE('',#260,#258,#119,.T.);
#320=EDGE_CURVE('',#261,#260,#120,.T.);
#321=EDGE_CURVE('',#261,#259,#121,.T.);
#322=EDGE_CURVE('',#259,#262,#226,.T.);
#323=EDGE_CURVE('',#263,#261,#227,.T.);
#324=EDGE_CURVE('',#263,#262,#122,.T.);
#325=EDGE_CURVE('',#262,#264,#123,.T.);
#326=EDGE_CURVE('',#265,#263,#124,.T.);
#327=EDGE_CURVE('',#265,#264,#125,.T.);
#328=EDGE_CURVE('',#264,#266,#228,.T.);
#329=EDGE_CURVE('',#267,#265,#229,.T.);
#330=EDGE_CURVE('',#267,#266,#126,.T.);
#331=EDGE_CURVE('',#266,#268,#127,.T.);
#332=EDGE_CURVE('',#269,#267,#128,.T.);
#333=EDGE_CURVE('',#269,#268,#129,.T.);
#334=EDGE_CURVE('',#268,#270,#230,.T.);
#335=EDGE_CURVE('',#271,#269,#231,.T.);
#336=EDGE_CURVE('',#271,#270,#130,.T.);
#337=EDGE_CURVE('',#270,#272,#131,.T.);
#338=EDGE_CURVE('',#273,#271,#132,.T.);
#339=EDGE_CURVE('',#273,#272,#133,.T.);
#340=EDGE_CURVE('',#272,#258,#232,.T.);
#341=EDGE_CURVE('',#260,#273,#233,.T.);
#342=EDGE_CURVE('',#274,#275,#234,.T.);
#343=EDGE_CURVE('',#274,#276,#134,.T.);
#344=EDGE_CURVE('',#276,#277,#235,.T.);
#345=EDGE_CURVE('',#277,#275,#135,.T.);
#346=EDGE_CURVE('',#275,#278,#136,.T.);
#347=EDGE_CURVE('',#278,#279,#236,.T.);
#348=EDGE_CURVE('',#279,#280,#137,.T.);
#349=EDGE_CURVE('',#280,#281,#237,.T.);
#350=EDGE_CURVE('',#281,#282,#138,.T.);
#351=EDGE_CURVE('',#282,#283,#238,.T.);
#352=EDGE_CURVE('',#283,#274,#139,.T.);
#353=EDGE_CURVE('',#284,#277,#140,.T.);
#354=EDGE_CURVE('',#278,#284,#141,.T.);
#355=EDGE_CURVE('',#282,#285,#142,.T.);
#356=EDGE_CURVE('',#285,#286,#239,.T.);
#357=EDGE_CURVE('',#286,#283,#143,.T.);
#358=EDGE_CURVE('',#287,#281,#144,.T.);
#359=EDGE_CURVE('',#285,#287,#145,.T.);
#360=EDGE_CURVE('',#280,#288,#146,.T.);
#361=EDGE_CURVE('',#288,#287,#240,.T.);
#362=EDGE_CURVE('',#289,#279,#147,.T.);
#363=EDGE_CURVE('',#288,#289,#148,.T.);
#364=EDGE_CURVE('',#284,#289,#241,.T.);
#365=EDGE_CURVE('',#290,#291,#242,.T.);
#366=EDGE_CURVE('',#291,#292,#149,.T.);
#367=EDGE_CURVE('',#292,#293,#243,.T.);
#368=EDGE_CURVE('',#293,#290,#150,.T.);
#369=EDGE_CURVE('',#294,#293,#151,.T.);
#370=EDGE_CURVE('',#295,#294,#152,.T.);
#371=EDGE_CURVE('',#290,#295,#153,.T.);
#372=EDGE_CURVE('',#292,#296,#154,.T.);
#373=EDGE_CURVE('',#297,#296,#244,.T.);
#374=EDGE_CURVE('',#297,#298,#155,.T.);
#375=EDGE_CURVE('',#299,#298,#245,.T.);
#376=EDGE_CURVE('',#299,#300,#156,.T.);
#377=EDGE_CURVE('',#294,#300,#246,.T.);
#378=EDGE_CURVE('',#301,#295,#247,.T.);
#379=EDGE_CURVE('',#300,#301,#157,.T.);
#380=EDGE_CURVE('',#302,#299,#158,.T.);
#381=EDGE_CURVE('',#301,#302,#159,.T.);
#382=EDGE_CURVE('',#298,#303,#160,.T.);
#383=EDGE_CURVE('',#303,#302,#248,.T.);
#384=EDGE_CURVE('',#304,#297,#161,.T.);
#385=EDGE_CURVE('',#303,#304,#162,.T.);
#386=EDGE_CURVE('',#305,#304,#249,.T.);
#387=EDGE_CURVE('',#296,#305,#163,.T.);
#388=EDGE_CURVE('',#305,#291,#164,.T.);
#389=EDGE_CURVE('',#276,#286,#165,.T.);
#390=ORIENTED_EDGE('',*,*,#306,.F.);
#391=ORIENTED_EDGE('',*,*,#307,.T.);
#392=ORIENTED_EDGE('',*,*,#308,.F.);
#393=ORIENTED_EDGE('',*,*,#307,.F.);
#394=ORIENTED_EDGE('',*,*,#309,.F.);
#395=ORIENTED_EDGE('',*,*,#310,.T.);
#396=ORIENTED_EDGE('',*,*,#311,.F.);
#397=ORIENTED_EDGE('',*,*,#310,.F.);
#398=ORIENTED_EDGE('',*,*,#312,.F.);
#399=ORIENTED_EDGE('',*,*,#313,.T.);
#400=ORIENTED_EDGE('',*,*,#314,.F.);
#401=ORIENTED_EDGE('',*,*,#313,.F.);
#402=ORIENTED_EDGE('',*,*,#315,.F.);
#403=ORIENTED_EDGE('',*,*,#316,.T.);
#404=ORIENTED_EDGE('',*,*,#317,.F.);
#405=ORIENTED_EDGE('',*,*,#316,.F.);
#406=ORIENTED_EDGE('',*,*,#318,.F.);
#407=ORIENTED_EDGE('',*,*,#319,.F.);
#408=ORIENTED_EDGE('',*,*,#320,.F.);
#409=ORIENTED_EDGE('',*,*,#321,.T.);
#410=ORIENTED_EDGE('',*,*,#322,.F.);
#411=ORIENTED_EDGE('',*,*,#321,.F.);
#412=ORIENTED_EDGE('',*,*,#323,.F.);
#413=ORIENTED_EDGE('',*,*,#324,.T.);
#414=ORIENTED_EDGE('',*,*,#325,.F.);
#415=ORIENTED_EDGE('',*,*,#324,.F.);
#416=ORIENTED_EDGE('',*,*,#326,.F.);
#417=ORIENTED_EDGE('',*,*,#327,.T.);
#418=ORIENTED_EDGE('',*,*,#328,.F.);
#419=ORIENTED_EDGE('',*,*,#327,.F.);
#420=ORIENTED_EDGE('',*,*,#329,.F.);
#421=ORIENTED_EDGE('',*,*,#330,.T.);
#422=ORIENTED_EDGE('',*,*,#331,.F.);
#423=ORIENTED_EDGE('',*,*,#330,.F.);
#424=ORIENTED_EDGE('',*,*,#332,.F.);
#425=ORIENTED_EDGE('',*,*,#333,.T.);
#426=ORIENTED_EDGE('',*,*,#334,.F.);
#427=ORIENTED_EDGE('',*,*,#333,.F.);
#428=ORIENTED_EDGE('',*,*,#335,.F.);
#429=ORIENTED_EDGE('',*,*,#336,.T.);
#430=ORIENTED_EDGE('',*,*,#337,.F.);
#431=ORIENTED_EDGE('',*,*,#336,.F.);
#432=ORIENTED_EDGE('',*,*,#338,.F.);
#433=ORIENTED_EDGE('',*,*,#339,.T.);
#434=ORIENTED_EDGE('',*,*,#340,.F.);
#435=ORIENTED_EDGE('',*,*,#339,.F.);
#436=ORIENTED_EDGE('',*,*,#341,.F.);
#437=ORIENTED_EDGE('',*,*,#319,.T.);
#438=ORIENTED_EDGE('',*,*,#342,.F.);
#439=ORIENTED_EDGE('',*,*,#343,.T.);
#440=ORIENTED_EDGE('',*,*,#344,.T.);
#441=ORIENTED_EDGE('',*,*,#345,.T.);
#442=ORIENTED_EDGE('',*,*,#342,.T.);
#443=ORIENTED_EDGE('',*,*,#346,.T.);
#444=ORIENTED_EDGE('',*,*,#347,.T.);
#445=ORIENTED_EDGE('',*,*,#348,.T.);
#446=ORIENTED_EDGE('',*,*,#349,.T.);
#447=ORIENTED_EDGE('',*,*,#350,.T.);
#448=ORIENTED_EDGE('',*,*,#351,.T.);
#449=ORIENTED_EDGE('',*,*,#352,.T.);
#450=ORIENTED_EDGE('',*,*,#345,.F.);
#451=ORIENTED_EDGE('',*,*,#353,.F.);
#452=ORIENTED_EDGE('',*,*,#354,.F.);
#453=ORIENTED_EDGE('',*,*,#346,.F.);
#454=ORIENTED_EDGE('',*,*,#351,.F.);
#455=ORIENTED_EDGE('',*,*,#355,.T.);
#456=ORIENTED_EDGE('',*,*,#356,.T.);
#457=ORIENTED_EDGE('',*,*,#357,.T.);
#458=ORIENTED_EDGE('',*,*,#355,.F.);
#459=ORIENTED_EDGE('',*,*,#350,.F.);
#460=ORIENTED_EDGE('',*,*,#358,.F.);
#461=ORIENTED_EDGE('',*,*,#359,.F.);
#462=ORIENTED_EDGE('',*,*,#349,.F.);
#463=ORIENTED_EDGE('',*,*,#360,.T.);
#464=ORIENTED_EDGE('',*,*,#361,.T.);
#465=ORIENTED_EDGE('',*,*,#358,.T.);
#466=ORIENTED_EDGE('',*,*,#360,.F.);
#467=ORIENTED_EDGE('',*,*,#348,.F.);
#468=ORIENTED_EDGE('',*,*,#362,.F.);
#469=ORIENTED_EDGE('',*,*,#363,.F.);
#470=ORIENTED_EDGE('',*,*,#347,.F.);
#471=ORIENTED_EDGE('',*,*,#354,.T.);
#472=ORIENTED_EDGE('',*,*,#364,.T.);
#473=ORIENTED_EDGE('',*,*,#362,.T.);
#474=ORIENTED_EDGE('',*,*,#365,.T.);
#475=ORIENTED_EDGE('',*,*,#366,.T.);
#476=ORIENTED_EDGE('',*,*,#367,.T.);
#477=ORIENTED_EDGE('',*,*,#368,.T.);
#478=ORIENTED_EDGE('',*,*,#368,.F.);
#479=ORIENTED_EDGE('',*,*,#369,.F.);
#480=ORIENTED_EDGE('',*,*,#370,.F.);
#481=ORIENTED_EDGE('',*,*,#371,.F.);
#482=ORIENTED_EDGE('',*,*,#332,.T.);
#483=ORIENTED_EDGE('',*,*,#329,.T.);
#484=ORIENTED_EDGE('',*,*,#326,.T.);
#485=ORIENTED_EDGE('',*,*,#323,.T.);
#486=ORIENTED_EDGE('',*,*,#320,.T.);
#487=ORIENTED_EDGE('',*,*,#341,.T.);
#488=ORIENTED_EDGE('',*,*,#338,.T.);
#489=ORIENTED_EDGE('',*,*,#335,.T.);
#490=ORIENTED_EDGE('',*,*,#367,.F.);
#491=ORIENTED_EDGE('',*,*,#372,.T.);
#492=ORIENTED_EDGE('',*,*,#373,.F.);
#493=ORIENTED_EDGE('',*,*,#374,.T.);
#494=ORIENTED_EDGE('',*,*,#375,.F.);
#495=ORIENTED_EDGE('',*,*,#376,.T.);
#496=ORIENTED_EDGE('',*,*,#377,.F.);
#497=ORIENTED_EDGE('',*,*,#369,.T.);
#498=ORIENTED_EDGE('',*,*,#308,.T.);
#499=ORIENTED_EDGE('',*,*,#311,.T.);
#500=ORIENTED_EDGE('',*,*,#314,.T.);
#501=ORIENTED_EDGE('',*,*,#317,.T.);
#502=ORIENTED_EDGE('',*,*,#378,.T.);
#503=ORIENTED_EDGE('',*,*,#370,.T.);
#504=ORIENTED_EDGE('',*,*,#377,.T.);
#505=ORIENTED_EDGE('',*,*,#379,.T.);
#506=ORIENTED_EDGE('',*,*,#379,.F.);
#507=ORIENTED_EDGE('',*,*,#376,.F.);
#508=ORIENTED_EDGE('',*,*,#380,.F.);
#509=ORIENTED_EDGE('',*,*,#381,.F.);
#510=ORIENTED_EDGE('',*,*,#375,.T.);
#511=ORIENTED_EDGE('',*,*,#382,.T.);
#512=ORIENTED_EDGE('',*,*,#383,.T.);
#513=ORIENTED_EDGE('',*,*,#380,.T.);
#514=ORIENTED_EDGE('',*,*,#382,.F.);
#515=ORIENTED_EDGE('',*,*,#374,.F.);
#516=ORIENTED_EDGE('',*,*,#384,.F.);
#517=ORIENTED_EDGE('',*,*,#385,.F.);
#518=ORIENTED_EDGE('',*,*,#386,.T.);
#519=ORIENTED_EDGE('',*,*,#384,.T.);
#520=ORIENTED_EDGE('',*,*,#373,.T.);
#521=ORIENTED_EDGE('',*,*,#387,.T.);
#522=ORIENTED_EDGE('',*,*,#366,.F.);
#523=ORIENTED_EDGE('',*,*,#388,.F.);
#524=ORIENTED_EDGE('',*,*,#387,.F.);
#525=ORIENTED_EDGE('',*,*,#372,.F.);
#526=ORIENTED_EDGE('',*,*,#343,.F.);
#527=ORIENTED_EDGE('',*,*,#352,.F.);
#528=ORIENTED_EDGE('',*,*,#357,.F.);
#529=ORIENTED_EDGE('',*,*,#389,.F.);
#530=ORIENTED_EDGE('',*,*,#331,.T.);
#531=ORIENTED_EDGE('',*,*,#334,.T.);
#532=ORIENTED_EDGE('',*,*,#337,.T.);
#533=ORIENTED_EDGE('',*,*,#340,.T.);
#534=ORIENTED_EDGE('',*,*,#318,.T.);
#535=ORIENTED_EDGE('',*,*,#322,.T.);
#536=ORIENTED_EDGE('',*,*,#325,.T.);
#537=ORIENTED_EDGE('',*,*,#328,.T.);
#538=ORIENTED_EDGE('',*,*,#365,.F.);
#539=ORIENTED_EDGE('',*,*,#371,.T.);
#540=ORIENTED_EDGE('',*,*,#378,.F.);
#541=ORIENTED_EDGE('',*,*,#381,.T.);
#542=ORIENTED_EDGE('',*,*,#383,.F.);
#543=ORIENTED_EDGE('',*,*,#385,.T.);
#544=ORIENTED_EDGE('',*,*,#386,.F.);
#545=ORIENTED_EDGE('',*,*,#388,.T.);
#546=ORIENTED_EDGE('',*,*,#363,.T.);
#547=ORIENTED_EDGE('',*,*,#364,.F.);
#548=ORIENTED_EDGE('',*,*,#353,.T.);
#549=ORIENTED_EDGE('',*,*,#344,.F.);
#550=ORIENTED_EDGE('',*,*,#389,.T.);
#551=ORIENTED_EDGE('',*,*,#356,.F.);
#552=ORIENTED_EDGE('',*,*,#359,.T.);
#553=ORIENTED_EDGE('',*,*,#361,.F.);
#554=ORIENTED_EDGE('',*,*,#315,.T.);
#555=ORIENTED_EDGE('',*,*,#312,.T.);
#556=ORIENTED_EDGE('',*,*,#309,.T.);
#557=ORIENTED_EDGE('',*,*,#306,.T.);
#558=CYLINDRICAL_SURFACE('',#607,1.45);
#559=CYLINDRICAL_SURFACE('',#610,1.45);
#560=CYLINDRICAL_SURFACE('',#613,1.45);
#561=CYLINDRICAL_SURFACE('',#616,1.45);
#562=CYLINDRICAL_SURFACE('',#620,1.00000000000001);
#563=CYLINDRICAL_SURFACE('',#624,0.999999999999997);
#564=CYLINDRICAL_SURFACE('',#628,0.999999999999996);
#565=CYLINDRICAL_SURFACE('',#632,1.00000000000002);
#566=CYLINDRICAL_SURFACE('',#635,5.);
#567=CYLINDRICAL_SURFACE('',#643,5.);
#568=CYLINDRICAL_SURFACE('',#646,5.);
#569=CYLINDRICAL_SURFACE('',#649,5.);
#570=CYLINDRICAL_SURFACE('',#651,1.);
#571=CYLINDRICAL_SURFACE('',#659,1.);
#572=CYLINDRICAL_SURFACE('',#662,1.);
#573=CYLINDRICAL_SURFACE('',#665,1.);
#574=ADVANCED_FACE('',(#41),#558,.F.);
#575=ADVANCED_FACE('',(#42),#559,.F.);
#576=ADVANCED_FACE('',(#43),#560,.F.);
#577=ADVANCED_FACE('',(#44),#561,.F.);
#578=ADVANCED_FACE('',(#45),#26,.F.);
#579=ADVANCED_FACE('',(#46),#562,.F.);
#580=ADVANCED_FACE('',(#47),#27,.F.);
#581=ADVANCED_FACE('',(#48),#563,.F.);
#582=ADVANCED_FACE('',(#49),#28,.F.);
#583=ADVANCED_FACE('',(#50),#564,.F.);
#584=ADVANCED_FACE('',(#51),#29,.F.);
#585=ADVANCED_FACE('',(#52),#565,.F.);
#586=ADVANCED_FACE('',(#53),#566,.F.);
#587=ADVANCED_FACE('',(#54),#30,.F.);
#588=ADVANCED_FACE('',(#55),#31,.T.);
#589=ADVANCED_FACE('',(#56),#567,.F.);
#590=ADVANCED_FACE('',(#57),#32,.T.);
#591=ADVANCED_FACE('',(#58),#568,.F.);
#592=ADVANCED_FACE('',(#59),#33,.T.);
#593=ADVANCED_FACE('',(#60),#569,.F.);
#594=ADVANCED_FACE('',(#61),#570,.T.);
#595=ADVANCED_FACE('',(#62,#15),#34,.T.);
#596=ADVANCED_FACE('',(#63,#16,#17,#18,#19),#35,.T.);
#597=ADVANCED_FACE('',(#64),#571,.T.);
#598=ADVANCED_FACE('',(#65),#36,.T.);
#599=ADVANCED_FACE('',(#66),#572,.T.);
#600=ADVANCED_FACE('',(#67),#37,.T.);
#601=ADVANCED_FACE('',(#68),#573,.T.);
#602=ADVANCED_FACE('',(#69),#38,.T.);
#603=ADVANCED_FACE('',(#70,#20),#39,.T.);
#604=ADVANCED_FACE('',(#71,#21,#22,#23,#24,#25),#40,.T.);
#605=CLOSED_SHELL('',(#574,#575,#576,#577,#578,#579,#580,#581,#582,#583,
#584,#585,#586,#587,#588,#589,#590,#591,#592,#593,#594,#595,#596,#597,#598,
#599,#600,#601,#602,#603,#604));
#606=AXIS2_PLACEMENT_3D('',#850,#670,#671);
#607=AXIS2_PLACEMENT_3D('',#851,#672,#673);
#608=AXIS2_PLACEMENT_3D('',#853,#674,#675);
#609=AXIS2_PLACEMENT_3D('',#856,#677,#678);
#610=AXIS2_PLACEMENT_3D('',#857,#679,#680);
#611=AXIS2_PLACEMENT_3D('',#859,#681,#682);
#612=AXIS2_PLACEMENT_3D('',#862,#684,#685);
#613=AXIS2_PLACEMENT_3D('',#863,#686,#687);
#614=AXIS2_PLACEMENT_3D('',#865,#688,#689);
#615=AXIS2_PLACEMENT_3D('',#868,#691,#692);
#616=AXIS2_PLACEMENT_3D('',#869,#693,#694);
#617=AXIS2_PLACEMENT_3D('',#871,#695,#696);
#618=AXIS2_PLACEMENT_3D('',#874,#698,#699);
#619=AXIS2_PLACEMENT_3D('',#875,#700,#701);
#620=AXIS2_PLACEMENT_3D('',#884,#706,#707);
#621=AXIS2_PLACEMENT_3D('',#886,#708,#709);
#622=AXIS2_PLACEMENT_3D('',#888,#710,#711);
#623=AXIS2_PLACEMENT_3D('',#890,#713,#714);
#624=AXIS2_PLACEMENT_3D('',#896,#718,#719);
#625=AXIS2_PLACEMENT_3D('',#898,#720,#721);
#626=AXIS2_PLACEMENT_3D('',#900,#722,#723);
#627=AXIS2_PLACEMENT_3D('',#902,#725,#726);
#628=AXIS2_PLACEMENT_3D('',#908,#730,#731);
#629=AXIS2_PLACEMENT_3D('',#910,#732,#733);
#630=AXIS2_PLACEMENT_3D('',#912,#734,#735);
#631=AXIS2_PLACEMENT_3D('',#914,#737,#738);
#632=AXIS2_PLACEMENT_3D('',#920,#742,#743);
#633=AXIS2_PLACEMENT_3D('',#921,#744,#745);
#634=AXIS2_PLACEMENT_3D('',#922,#746,#747);
#635=AXIS2_PLACEMENT_3D('',#923,#748,#749);
#636=AXIS2_PLACEMENT_3D('',#926,#750,#751);
#637=AXIS2_PLACEMENT_3D('',#930,#753,#754);
#638=AXIS2_PLACEMENT_3D('',#932,#756,#757);
#639=AXIS2_PLACEMENT_3D('',#936,#759,#760);
#640=AXIS2_PLACEMENT_3D('',#940,#762,#763);
#641=AXIS2_PLACEMENT_3D('',#944,#765,#766);
#642=AXIS2_PLACEMENT_3D('',#946,#768,#769);
#643=AXIS2_PLACEMENT_3D('',#950,#772,#773);
#644=AXIS2_PLACEMENT_3D('',#954,#775,#776);
#645=AXIS2_PLACEMENT_3D('',#956,#778,#779);
#646=AXIS2_PLACEMENT_3D('',#960,#782,#783);
#647=AXIS2_PLACEMENT_3D('',#963,#785,#786);
#648=AXIS2_PLACEMENT_3D('',#964,#787,#788);
#649=AXIS2_PLACEMENT_3D('',#968,#791,#792);
#650=AXIS2_PLACEMENT_3D('',#969,#793,#794);
#651=AXIS2_PLACEMENT_3D('',#970,#795,#796);
#652=AXIS2_PLACEMENT_3D('',#973,#797,#798);
#653=AXIS2_PLACEMENT_3D('',#977,#800,#801);
#654=AXIS2_PLACEMENT_3D('',#979,#803,#804);
#655=AXIS2_PLACEMENT_3D('',#985,#808,#809);
#656=AXIS2_PLACEMENT_3D('',#989,#811,#812);
#657=AXIS2_PLACEMENT_3D('',#993,#814,#815);
#658=AXIS2_PLACEMENT_3D('',#996,#817,#818);
#659=AXIS2_PLACEMENT_3D('',#997,#819,#820);
#660=AXIS2_PLACEMENT_3D('',#999,#821,#822);
#661=AXIS2_PLACEMENT_3D('',#1001,#824,#825);
#662=AXIS2_PLACEMENT_3D('',#1005,#828,#829);
#663=AXIS2_PLACEMENT_3D('',#1008,#831,#832);
#664=AXIS2_PLACEMENT_3D('',#1009,#833,#834);
#665=AXIS2_PLACEMENT_3D('',#1013,#837,#838);
#666=AXIS2_PLACEMENT_3D('',#1015,#839,#840);
#667=AXIS2_PLACEMENT_3D('',#1017,#842,#843);
#668=AXIS2_PLACEMENT_3D('',#1019,#845,#846);
#669=AXIS2_PLACEMENT_3D('',#1021,#848,#849);
#670=DIRECTION('axis',(0.,0.,1.));
#671=DIRECTION('refdir',(1.,0.,0.));
#672=DIRECTION('center_axis',(0.,0.,-1.));
#673=DIRECTION('ref_axis',(-1.,0.,0.));
#674=DIRECTION('center_axis',(0.,0.,-1.));
#675=DIRECTION('ref_axis',(-1.,0.,0.));
#676=DIRECTION('',(0.,0.,-1.));
#677=DIRECTION('center_axis',(0.,0.,1.));
#678=DIRECTION('ref_axis',(-1.,0.,0.));
#679=DIRECTION('center_axis',(0.,0.,-1.));
#680=DIRECTION('ref_axis',(-1.,0.,0.));
#681=DIRECTION('center_axis',(0.,0.,-1.));
#682=DIRECTION('ref_axis',(-1.,0.,0.));
#683=DIRECTION('',(0.,0.,-1.));
#684=DIRECTION('center_axis',(0.,0.,1.));
#685=DIRECTION('ref_axis',(-1.,0.,0.));
#686=DIRECTION('center_axis',(0.,0.,-1.));
#687=DIRECTION('ref_axis',(-1.,0.,0.));
#688=DIRECTION('center_axis',(0.,0.,-1.));
#689=DIRECTION('ref_axis',(-1.,0.,0.));
#690=DIRECTION('',(0.,0.,-1.));
#691=DIRECTION('center_axis',(0.,0.,1.));
#692=DIRECTION('ref_axis',(-1.,0.,0.));
#693=DIRECTION('center_axis',(0.,0.,-1.));
#694=DIRECTION('ref_axis',(-1.,0.,0.));
#695=DIRECTION('center_axis',(0.,0.,-1.));
#696=DIRECTION('ref_axis',(-1.,0.,0.));
#697=DIRECTION('',(0.,0.,-1.));
#698=DIRECTION('center_axis',(0.,0.,1.));
#699=DIRECTION('ref_axis',(-1.,0.,0.));
#700=DIRECTION('center_axis',(1.,0.,0.));
#701=DIRECTION('ref_axis',(0.,0.,1.));
#702=DIRECTION('',(0.,0.,-1.));
#703=DIRECTION('',(0.,-1.,0.));
#704=DIRECTION('',(0.,0.,1.));
#705=DIRECTION('',(0.,-1.,0.));
#706=DIRECTION('center_axis',(0.,-1.,0.));
#707=DIRECTION('ref_axis',(1.,0.,-1.66533453693771E-14));
#708=DIRECTION('center_axis',(0.,1.,0.));
#709=DIRECTION('ref_axis',(1.,0.,-1.66533453693771E-14));
#710=DIRECTION('center_axis',(0.,-1.,0.));
#711=DIRECTION('ref_axis',(1.,0.,-1.66533453693771E-14));
#712=DIRECTION('',(0.,-1.,0.));
#713=DIRECTION('center_axis',(-2.21137200616892E-16,0.,-1.));
#714=DIRECTION('ref_axis',(1.,0.,-2.21137200616892E-16));
#715=DIRECTION('',(-1.,0.,2.21137200616892E-16));
#716=DIRECTION('',(1.,0.,-2.21137200616892E-16));
#717=DIRECTION('',(0.,-1.,0.));
#718=DIRECTION('center_axis',(0.,-1.,0.));
#719=DIRECTION('ref_axis',(0.,0.,-1.));
#720=DIRECTION('center_axis',(0.,1.,0.));
#721=DIRECTION('ref_axis',(0.,0.,-1.));
#722=DIRECTION('center_axis',(0.,-1.,0.));
#723=DIRECTION('ref_axis',(0.,0.,-1.));
#724=DIRECTION('',(0.,-1.,0.));
#725=DIRECTION('center_axis',(-1.,0.,0.));
#726=DIRECTION('ref_axis',(0.,0.,-1.));
#727=DIRECTION('',(0.,0.,1.));
#728=DIRECTION('',(0.,0.,-1.));
#729=DIRECTION('',(0.,-1.,0.));
#730=DIRECTION('center_axis',(0.,-1.,0.));
#731=DIRECTION('ref_axis',(-1.,0.,-1.24900090270331E-15));
#732=DIRECTION('center_axis',(0.,1.,0.));
#733=DIRECTION('ref_axis',(-1.,0.,-1.24900090270331E-15));
#734=DIRECTION('center_axis',(0.,-1.,0.));
#735=DIRECTION('ref_axis',(-1.,0.,-1.24900090270331E-15));
#736=DIRECTION('',(0.,-1.,0.));
#737=DIRECTION('center_axis',(0.,0.,1.));
#738=DIRECTION('ref_axis',(-1.,0.,0.));
#739=DIRECTION('',(1.,0.,0.));
#740=DIRECTION('',(-1.,0.,0.));
#741=DIRECTION('',(0.,-1.,0.));
#742=DIRECTION('center_axis',(0.,-1.,0.));
#743=DIRECTION('ref_axis',(0.,0.,1.));
#744=DIRECTION('center_axis',(0.,1.,0.));
#745=DIRECTION('ref_axis',(0.,0.,1.));
#746=DIRECTION('center_axis',(0.,-1.,0.));
#747=DIRECTION('ref_axis',(0.,0.,1.));
#748=DIRECTION('center_axis',(0.,0.,1.));
#749=DIRECTION('ref_axis',(-0.707106781186547,0.707106781186547,0.));
#750=DIRECTION('center_axis',(0.,0.,1.));
#751=DIRECTION('ref_axis',(-0.707106781186547,0.707106781186547,0.));
#752=DIRECTION('',(0.,0.,1.));
#753=DIRECTION('center_axis',(0.,0.,1.));
#754=DIRECTION('ref_axis',(-0.707106781186547,0.707106781186547,0.));
#755=DIRECTION('',(0.,0.,-1.));
#756=DIRECTION('center_axis',(0.,0.,-1.));
#757=DIRECTION('ref_axis',(1.,0.,0.));
#758=DIRECTION('',(0.,-1.,0.));
#759=DIRECTION('center_axis',(0.,0.,1.));
#760=DIRECTION('ref_axis',(-0.707106781186547,-0.707106781186547,0.));
#761=DIRECTION('',(1.,0.,0.));
#762=DIRECTION('center_axis',(0.,0.,1.));
#763=DIRECTION('ref_axis',(0.707106781186547,-0.707106781186547,0.));
#764=DIRECTION('',(0.,1.,0.));
#765=DIRECTION('center_axis',(0.,0.,1.));
#766=DIRECTION('ref_axis',(0.707106781186547,0.707106781186547,0.));
#767=DIRECTION('',(-1.,0.,0.));
#768=DIRECTION('center_axis',(1.,0.,0.));
#769=DIRECTION('ref_axis',(0.,1.,0.));
#770=DIRECTION('',(0.,1.,0.));
#771=DIRECTION('',(0.,0.,1.));
#772=DIRECTION('center_axis',(0.,0.,1.));
#773=DIRECTION('ref_axis',(0.707106781186547,0.707106781186547,0.));
#774=DIRECTION('',(0.,0.,1.));
#775=DIRECTION('center_axis',(0.,0.,1.));
#776=DIRECTION('ref_axis',(0.707106781186547,0.707106781186547,0.));
#777=DIRECTION('',(0.,0.,-1.));
#778=DIRECTION('center_axis',(-1.,0.,0.));
#779=DIRECTION('ref_axis',(0.,-1.,0.));
#780=DIRECTION('',(0.,0.,-1.));
#781=DIRECTION('',(0.,-1.,0.));
#782=DIRECTION('center_axis',(0.,0.,-1.));
#783=DIRECTION('ref_axis',(0.707106781186547,-0.707106781186547,0.));
#784=DIRECTION('',(0.,0.,1.));
#785=DIRECTION('center_axis',(0.,0.,1.));
#786=DIRECTION('ref_axis',(0.707106781186547,-0.707106781186547,0.));
#787=DIRECTION('center_axis',(0.,1.,0.));
#788=DIRECTION('ref_axis',(-1.,0.,0.));
#789=DIRECTION('',(0.,0.,-1.));
#790=DIRECTION('',(-1.,0.,0.));
#791=DIRECTION('center_axis',(0.,0.,1.));
#792=DIRECTION('ref_axis',(-0.707106781186547,-0.707106781186547,0.));
#793=DIRECTION('center_axis',(0.,0.,1.));
#794=DIRECTION('ref_axis',(-0.707106781186547,-0.707106781186547,0.));
#795=DIRECTION('center_axis',(0.,0.,1.));
#796=DIRECTION('ref_axis',(0.707106781186554,0.707106781186541,0.));
#797=DIRECTION('center_axis',(0.,0.,-1.));
#798=DIRECTION('ref_axis',(0.707106781186554,0.707106781186541,0.));
#799=DIRECTION('',(0.,0.,-1.));
#800=DIRECTION('center_axis',(0.,0.,1.));
#801=DIRECTION('ref_axis',(0.707106781186554,0.707106781186541,0.));
#802=DIRECTION('',(0.,0.,1.));
#803=DIRECTION('center_axis',(0.,1.,0.));
#804=DIRECTION('ref_axis',(-1.,0.,0.));
#805=DIRECTION('',(1.,0.,0.));
#806=DIRECTION('',(0.,0.,-1.));
#807=DIRECTION('',(-1.,0.,0.));
#808=DIRECTION('center_axis',(0.,0.,-1.));
#809=DIRECTION('ref_axis',(-1.,0.,0.));
#810=DIRECTION('',(0.,-1.,0.));
#811=DIRECTION('center_axis',(0.,0.,1.));
#812=DIRECTION('ref_axis',(0.707106781186548,-0.707106781186548,0.));
#813=DIRECTION('',(-1.,0.,0.));
#814=DIRECTION('center_axis',(0.,0.,1.));
#815=DIRECTION('ref_axis',(-0.707106781186548,-0.707106781186548,0.));
#816=DIRECTION('',(0.,1.,0.));
#817=DIRECTION('center_axis',(0.,0.,1.));
#818=DIRECTION('ref_axis',(-0.707106781186554,0.707106781186541,0.));
#819=DIRECTION('center_axis',(0.,0.,1.));
#820=DIRECTION('ref_axis',(-0.707106781186554,0.707106781186541,0.));
#821=DIRECTION('center_axis',(0.,0.,-1.));
#822=DIRECTION('ref_axis',(-0.707106781186554,0.707106781186541,0.));
#823=DIRECTION('',(0.,0.,1.));
#824=DIRECTION('center_axis',(-1.,0.,0.));
#825=DIRECTION('ref_axis',(0.,-1.,0.));
#826=DIRECTION('',(0.,0.,-1.));
#827=DIRECTION('',(0.,-1.,0.));
#828=DIRECTION('center_axis',(0.,0.,-1.));
#829=DIRECTION('ref_axis',(-0.707106781186548,-0.707106781186548,0.));
#830=DIRECTION('',(0.,0.,1.));
#831=DIRECTION('center_axis',(0.,0.,-1.));
#832=DIRECTION('ref_axis',(-0.707106781186548,-0.707106781186548,0.));
#833=DIRECTION('center_axis',(0.,-1.,0.));
#834=DIRECTION('ref_axis',(1.,0.,0.));
#835=DIRECTION('',(0.,0.,-1.));
#836=DIRECTION('',(1.,0.,0.));
#837=DIRECTION('center_axis',(0.,0.,1.));
#838=DIRECTION('ref_axis',(0.707106781186548,-0.707106781186548,0.));
#839=DIRECTION('center_axis',(0.,0.,-1.));
#840=DIRECTION('ref_axis',(0.707106781186548,-0.707106781186548,0.));
#841=DIRECTION('',(0.,0.,1.));
#842=DIRECTION('center_axis',(1.,0.,0.));
#843=DIRECTION('ref_axis',(0.,1.,0.));
#844=DIRECTION('',(0.,1.,0.));
#845=DIRECTION('center_axis',(0.,-1.,0.));
#846=DIRECTION('ref_axis',(1.,0.,0.));
#847=DIRECTION('',(1.,0.,0.));
#848=DIRECTION('center_axis',(0.,0.,1.));
#849=DIRECTION('ref_axis',(1.,0.,0.));
#850=CARTESIAN_POINT('',(0.,0.,0.));
#851=CARTESIAN_POINT('Origin',(194.000001817942,-44.0000006705523,16.));
#852=CARTESIAN_POINT('',(195.450001817942,-44.0000006705523,12.));
#853=CARTESIAN_POINT('Origin',(194.000001817942,-44.0000006705523,12.));
#854=CARTESIAN_POINT('',(195.450001817942,-44.0000006705523,-10.));
#855=CARTESIAN_POINT('',(195.450001817942,-44.0000006705523,16.));
#856=CARTESIAN_POINT('Origin',(194.000001817942,-44.0000006705523,-10.));
#857=CARTESIAN_POINT('Origin',(122.000001817942,-45.0000006705523,16.));
#858=CARTESIAN_POINT('',(123.450001817942,-45.0000006705523,12.));
#859=CARTESIAN_POINT('Origin',(122.000001817942,-45.0000006705523,12.));
#860=CARTESIAN_POINT('',(123.450001817942,-45.0000006705523,-10.));
#861=CARTESIAN_POINT('',(123.450001817942,-45.0000006705523,16.));
#862=CARTESIAN_POINT('Origin',(122.000001817942,-45.0000006705523,-10.));
#863=CARTESIAN_POINT('Origin',(194.000001817942,-98.0000006705523,16.));
#864=CARTESIAN_POINT('',(195.450001817942,-98.0000006705523,12.));
#865=CARTESIAN_POINT('Origin',(194.000001817942,-98.0000006705523,12.));
#866=CARTESIAN_POINT('',(195.450001817942,-98.0000006705523,-10.));
#867=CARTESIAN_POINT('',(195.450001817942,-98.0000006705523,16.));
#868=CARTESIAN_POINT('Origin',(194.000001817942,-98.0000006705523,-10.));
#869=CARTESIAN_POINT('Origin',(122.000001817942,-98.0000006705523,16.));
#870=CARTESIAN_POINT('',(123.450001817942,-98.0000006705523,12.));
#871=CARTESIAN_POINT('Origin',(122.000001817942,-98.0000006705523,12.));
#872=CARTESIAN_POINT('',(123.450001817942,-98.0000006705523,-10.));
#873=CARTESIAN_POINT('',(123.450001817942,-98.0000006705523,16.));
#874=CARTESIAN_POINT('Origin',(122.000001817942,-98.0000006705523,-10.));
#875=CARTESIAN_POINT('Origin',(163.462080020687,-39.6912956129554,-4.38177425141406));
#876=CARTESIAN_POINT('',(163.462080020687,-47.0000007003546,-1.08787157252714));
#877=CARTESIAN_POINT('',(163.462080020687,-47.0000007003546,-4.38177425141406));
#878=CARTESIAN_POINT('',(163.462080020687,-47.0000007003546,-2.19088712570703));
#879=CARTESIAN_POINT('',(163.462080020687,-39.6912956129554,-1.08787157252714));
#880=CARTESIAN_POINT('',(163.462080020687,-39.6912956129554,-1.08787157252714));
#881=CARTESIAN_POINT('',(163.462080020687,-39.6912956129554,-4.38177425141406));
#882=CARTESIAN_POINT('',(163.462080020687,-39.6912956129554,-2.19088712570703));
#883=CARTESIAN_POINT('',(163.462080020687,-39.6912956129554,-4.38177425141406));
#884=CARTESIAN_POINT('Origin',(162.462080020687,-39.6912956129554,-4.38177425141405));
#885=CARTESIAN_POINT('',(162.462080020687,-47.0000007003546,-5.38177425141406));
#886=CARTESIAN_POINT('Origin',(162.462080020687,-47.0000007003546,-4.38177425141405));
#887=CARTESIAN_POINT('',(162.462080020687,-39.6912956129554,-5.38177425141406));
#888=CARTESIAN_POINT('Origin',(162.462080020687,-39.6912956129554,-4.38177425141405));
#889=CARTESIAN_POINT('',(162.462080020687,-39.6912956129554,-5.38177425141406));
#890=CARTESIAN_POINT('Origin',(152.421046476552,-39.6912956129554,-5.38177425141406));
#891=CARTESIAN_POINT('',(152.421046476552,-47.0000007003546,-5.38177425141406));
#892=CARTESIAN_POINT('',(138.710524169599,-47.0000007003546,-5.38177425141406));
#893=CARTESIAN_POINT('',(152.421046476552,-39.6912956129554,-5.38177425141406));
#894=CARTESIAN_POINT('',(175.710524720942,-39.6912956129554,-5.38177425141406));
#895=CARTESIAN_POINT('',(152.421046476552,-39.6912956129554,-5.38177425141406));
#896=CARTESIAN_POINT('Origin',(152.421046476552,-39.6912956129554,-4.38177425141406));
#897=CARTESIAN_POINT('',(151.421046476552,-47.0000007003546,-4.38177425141406));
#898=CARTESIAN_POINT('Origin',(152.421046476552,-47.0000007003546,-4.38177425141406));
#899=CARTESIAN_POINT('',(151.421046476552,-39.6912956129554,-4.38177425141406));
#900=CARTESIAN_POINT('Origin',(152.421046476552,-39.6912956129554,-4.38177425141406));
#901=CARTESIAN_POINT('',(151.421046476552,-39.6912956129554,-4.38177425141406));
#902=CARTESIAN_POINT('Origin',(151.421046476552,-39.6912956129554,-1.08787157252714));
#903=CARTESIAN_POINT('',(151.421046476552,-47.0000007003546,-1.08787157252714));
#904=CARTESIAN_POINT('',(151.421046476552,-47.0000007003546,-0.543935786263571));
#905=CARTESIAN_POINT('',(151.421046476552,-39.6912956129554,-1.08787157252714));
#906=CARTESIAN_POINT('',(151.421046476552,-39.6912956129554,-0.543935786263571));
#907=CARTESIAN_POINT('',(151.421046476552,-39.6912956129554,-1.08787157252714));
#908=CARTESIAN_POINT('Origin',(152.421046476552,-39.6912956129554,-1.08787157252714));
#909=CARTESIAN_POINT('',(152.421046476552,-47.0000007003546,-0.0878715725271448));
#910=CARTESIAN_POINT('Origin',(152.421046476552,-47.0000007003546,-1.08787157252714));
#911=CARTESIAN_POINT('',(152.421046476552,-39.6912956129554,-0.0878715725271448));
#912=CARTESIAN_POINT('Origin',(152.421046476552,-39.6912956129554,-1.08787157252714));
#913=CARTESIAN_POINT('',(152.421046476552,-39.6912956129554,-0.0878715725271448));
#914=CARTESIAN_POINT('Origin',(162.462080020687,-39.6912956129554,-0.0878715725271428));
#915=CARTESIAN_POINT('',(162.462080020687,-47.0000007003546,-0.0878715725271428));
#916=CARTESIAN_POINT('',(143.731040941666,-47.0000007003546,-0.0878715725271428));
#917=CARTESIAN_POINT('',(162.462080020687,-39.6912956129554,-0.0878715725271428));
#918=CARTESIAN_POINT('',(180.731041493009,-39.6912956129554,-0.0878715725271428));
#919=CARTESIAN_POINT('',(162.462080020687,-39.6912956129554,-0.0878715725271428));
#920=CARTESIAN_POINT('Origin',(162.462080020687,-39.6912956129554,-1.08787157252716));
#921=CARTESIAN_POINT('Origin',(162.462080020687,-47.0000007003546,-1.08787157252716));
#922=CARTESIAN_POINT('Origin',(162.462080020687,-39.6912956129554,-1.08787157252716));
#923=CARTESIAN_POINT('Origin',(130.000001862645,-52.0000007003546,0.));
#924=CARTESIAN_POINT('',(130.000001862645,-47.0000007003546,-7.));
#925=CARTESIAN_POINT('',(125.000001862645,-52.0000007003546,-7.));
#926=CARTESIAN_POINT('Origin',(130.000001862645,-52.0000007003546,-7.));
#927=CARTESIAN_POINT('',(130.000001862645,-47.0000007003546,12.));
#928=CARTESIAN_POINT('',(130.000001862645,-47.0000007003546,0.));
#929=CARTESIAN_POINT('',(125.000001862645,-52.0000007003546,12.));
#930=CARTESIAN_POINT('Origin',(130.000001862645,-52.0000007003546,12.));
#931=CARTESIAN_POINT('',(125.000001862645,-52.0000007003546,0.));
#932=CARTESIAN_POINT('Origin',(158.243559388412,-70.8456485664371,-7.));
#933=CARTESIAN_POINT('',(125.000001862645,-89.0000014007092,-7.));
#934=CARTESIAN_POINT('',(125.000001862645,-94.0000014007092,-7.));
#935=CARTESIAN_POINT('',(130.000001862645,-94.0000014007092,-7.));
#936=CARTESIAN_POINT('Origin',(130.000001862645,-89.0000014007092,-7.));
#937=CARTESIAN_POINT('',(185.000002831221,-94.0000014007092,-7.));
#938=CARTESIAN_POINT('',(190.000002831221,-94.0000014007092,-7.));
#939=CARTESIAN_POINT('',(190.000002831221,-89.0000014007092,-7.));
#940=CARTESIAN_POINT('Origin',(185.000002831221,-89.0000014007092,-7.));
#941=CARTESIAN_POINT('',(190.000002831221,-52.0000007003546,-7.));
#942=CARTESIAN_POINT('',(190.000002831221,-47.0000007003546,-7.));
#943=CARTESIAN_POINT('',(185.000002831221,-47.0000007003546,-7.));
#944=CARTESIAN_POINT('Origin',(185.000002831221,-52.0000007003546,-7.));
#945=CARTESIAN_POINT('',(125.000001862645,-47.0000007003546,-7.));
#946=CARTESIAN_POINT('Origin',(125.000001862645,-94.0000014007092,0.));
#947=CARTESIAN_POINT('',(125.000001862645,-89.0000014007092,12.));
#948=CARTESIAN_POINT('',(125.000001862645,-94.0000014007092,12.));
#949=CARTESIAN_POINT('',(125.000001862645,-89.0000014007092,0.));
#950=CARTESIAN_POINT('Origin',(185.000002831221,-52.0000007003546,0.));
#951=CARTESIAN_POINT('',(190.000002831221,-52.0000007003546,12.));
#952=CARTESIAN_POINT('',(190.000002831221,-52.0000007003546,0.));
#953=CARTESIAN_POINT('',(185.000002831221,-47.0000007003546,12.));
#954=CARTESIAN_POINT('Origin',(185.000002831221,-52.0000007003546,12.));
#955=CARTESIAN_POINT('',(185.000002831221,-47.0000007003546,0.));
#956=CARTESIAN_POINT('Origin',(190.000002831221,-47.0000007003546,0.));
#957=CARTESIAN_POINT('',(190.000002831221,-89.0000014007092,12.));
#958=CARTESIAN_POINT('',(190.000002831221,-89.0000014007092,0.));
#959=CARTESIAN_POINT('',(190.000002831221,-47.0000007003546,12.));
#960=CARTESIAN_POINT('Origin',(185.000002831221,-89.0000014007092,0.));
#961=CARTESIAN_POINT('',(185.000002831221,-94.0000014007092,12.));
#962=CARTESIAN_POINT('',(185.000002831221,-94.0000014007092,0.));
#963=CARTESIAN_POINT('Origin',(185.000002831221,-89.0000014007092,12.));
#964=CARTESIAN_POINT('Origin',(190.000002831221,-94.0000014007092,0.));
#965=CARTESIAN_POINT('',(130.000001862645,-94.0000014007092,12.));
#966=CARTESIAN_POINT('',(130.000001862645,-94.0000014007092,0.));
#967=CARTESIAN_POINT('',(190.000002831221,-94.0000014007092,12.));
#968=CARTESIAN_POINT('Origin',(130.000001862645,-89.0000014007092,0.));
#969=CARTESIAN_POINT('Origin',(130.000001862645,-89.0000014007092,12.));
#970=CARTESIAN_POINT('Origin',(198.000002965332,-40.6912956129554,0.));
#971=CARTESIAN_POINT('',(198.000002965332,-39.6912956129554,12.));
#972=CARTESIAN_POINT('',(199.000002965332,-40.6912956129554,12.));
#973=CARTESIAN_POINT('Origin',(198.000002965332,-40.6912956129554,12.));
#974=CARTESIAN_POINT('',(199.000002965332,-40.6912956129554,-10.));
#975=CARTESIAN_POINT('',(199.000002965332,-40.6912956129554,0.));
#976=CARTESIAN_POINT('',(198.000002965332,-39.6912956129554,-10.));
#977=CARTESIAN_POINT('Origin',(198.000002965332,-40.6912956129554,-10.));
#978=CARTESIAN_POINT('',(198.000002965332,-39.6912956129554,0.));
#979=CARTESIAN_POINT('Origin',(199.000002965332,-39.6912956129554,0.));
#980=CARTESIAN_POINT('',(118.487115811492,-39.6912956129554,-10.));
#981=CARTESIAN_POINT('',(117.487115811492,-39.6912956129554,-10.));
#982=CARTESIAN_POINT('',(118.487115811492,-39.6912956129554,12.));
#983=CARTESIAN_POINT('',(118.487115811492,-39.6912956129554,0.));
#984=CARTESIAN_POINT('',(117.487115811492,-39.6912956129554,12.));
#985=CARTESIAN_POINT('Origin',(158.243559388412,-70.8456485664371,-10.));
#986=CARTESIAN_POINT('',(199.000002965332,-101.000001519919,-10.));
#987=CARTESIAN_POINT('',(199.000002965332,-39.6912956129554,-10.));
#988=CARTESIAN_POINT('',(198.000002965332,-102.000001519919,-10.));
#989=CARTESIAN_POINT('Origin',(198.000002965332,-101.000001519919,-10.));
#990=CARTESIAN_POINT('',(118.487115811492,-102.000001519919,-10.));
#991=CARTESIAN_POINT('',(199.000002965332,-102.000001519919,-10.));
#992=CARTESIAN_POINT('',(117.487115811492,-101.000001519919,-10.));
#993=CARTESIAN_POINT('Origin',(118.487115811492,-101.000001519919,-10.));
#994=CARTESIAN_POINT('',(117.487115811492,-40.6912956129554,-10.));
#995=CARTESIAN_POINT('',(117.487115811492,-102.000001519919,-10.));
#996=CARTESIAN_POINT('Origin',(118.487115811492,-40.6912956129554,-10.));
#997=CARTESIAN_POINT('Origin',(118.487115811492,-40.6912956129554,0.));
#998=CARTESIAN_POINT('',(117.487115811492,-40.6912956129554,12.));
#999=CARTESIAN_POINT('Origin',(118.487115811492,-40.6912956129554,12.));
#1000=CARTESIAN_POINT('',(117.487115811492,-40.6912956129554,0.));
#1001=CARTESIAN_POINT('Origin',(117.487115811492,-39.6912956129554,0.));
#1002=CARTESIAN_POINT('',(117.487115811492,-101.000001519919,12.));
#1003=CARTESIAN_POINT('',(117.487115811492,-101.000001519919,0.));
#1004=CARTESIAN_POINT('',(117.487115811492,-102.000001519919,12.));
#1005=CARTESIAN_POINT('Origin',(118.487115811492,-101.000001519919,0.));
#1006=CARTESIAN_POINT('',(118.487115811492,-102.000001519919,12.));
#1007=CARTESIAN_POINT('',(118.487115811492,-102.000001519919,0.));
#1008=CARTESIAN_POINT('Origin',(118.487115811492,-101.000001519919,12.));
#1009=CARTESIAN_POINT('Origin',(117.487115811492,-102.000001519919,0.));
#1010=CARTESIAN_POINT('',(198.000002965332,-102.000001519919,12.));
#1011=CARTESIAN_POINT('',(198.000002965332,-102.000001519919,0.));
#1012=CARTESIAN_POINT('',(199.000002965332,-102.000001519919,12.));
#1013=CARTESIAN_POINT('Origin',(198.000002965332,-101.000001519919,0.));
#1014=CARTESIAN_POINT('',(199.000002965332,-101.000001519919,12.));
#1015=CARTESIAN_POINT('Origin',(198.000002965332,-101.000001519919,12.));
#1016=CARTESIAN_POINT('',(199.000002965332,-101.000001519919,0.));
#1017=CARTESIAN_POINT('Origin',(199.000002965332,-102.000001519919,0.));
#1018=CARTESIAN_POINT('',(199.000002965332,-39.6912956129554,12.));
#1019=CARTESIAN_POINT('Origin',(125.000001862645,-47.0000007003546,0.));
#1020=CARTESIAN_POINT('',(125.000001862645,-47.0000007003546,12.));
#1021=CARTESIAN_POINT('Origin',(158.243559388412,-70.8456485664371,12.));
#1022=UNCERTAINTY_MEASURE_WITH_UNIT(LENGTH_MEASURE(0.01),#1026,
'DISTANCE_ACCURACY_VALUE',
'Maximum model space distance between geometric entities at asserted c
onnectivities');
#1023=UNCERTAINTY_MEASURE_WITH_UNIT(LENGTH_MEASURE(0.01),#1026,
'DISTANCE_ACCURACY_VALUE',
'Maximum model space distance between geometric entities at asserted c
onnectivities');
#1024=(
GEOMETRIC_REPRESENTATION_CONTEXT(3)
GLOBAL_UNCERTAINTY_ASSIGNED_CONTEXT((#1022))
GLOBAL_UNIT_ASSIGNED_CONTEXT((#1026,#1027,#1028))
REPRESENTATION_CONTEXT('','3D')
);
#1025=(
GEOMETRIC_REPRESENTATION_CONTEXT(3)
GLOBAL_UNCERTAINTY_ASSIGNED_CONTEXT((#1023))
GLOBAL_UNIT_ASSIGNED_CONTEXT((#1026,#1027,#1028))
REPRESENTATION_CONTEXT('','3D')
);
#1026=(
LENGTH_UNIT()
NAMED_UNIT(*)
SI_UNIT(.MILLI.,.METRE.)
);
#1027=(
NAMED_UNIT(*)
PLANE_ANGLE_UNIT()
SI_UNIT($,.RADIAN.)
);
#1028=(
NAMED_UNIT(*)
SI_UNIT($,.STERADIAN.)
SOLID_ANGLE_UNIT()
);
#1029=SHAPE_DEFINITION_REPRESENTATION(#1030,#1031);
#1030=PRODUCT_DEFINITION_SHAPE('',$,#1033);
#1031=SHAPE_REPRESENTATION('',(#606),#1024);
#1032=PRODUCT_DEFINITION_CONTEXT('part definition',#1037,'design');
#1033=PRODUCT_DEFINITION('stardance hackpad 1','stardance hackpad',#1034,
#1032);
#1034=PRODUCT_DEFINITION_FORMATION('',$,#1039);
#1035=PRODUCT_RELATED_PRODUCT_CATEGORY('stardance hackpad',
'stardance hackpad',(#1039));
#1036=APPLICATION_PROTOCOL_DEFINITION('international standard',
'automotive_design',2009,#1037);
#1037=APPLICATION_CONTEXT(
'Core Data for Automotive Mechanical Design Process');
#1038=PRODUCT_CONTEXT('part definition',#1037,'mechanical');
#1039=PRODUCT('stardance hackpad 1','stardance hackpad',
'KiCad electronic assembly',(#1038));
#1040=PRESENTATION_STYLE_ASSIGNMENT((#1041));
#1041=SURFACE_STYLE_USAGE(.BOTH.,#1042);
#1042=SURFACE_SIDE_STYLE('',(#1043));
#1043=SURFACE_STYLE_FILL_AREA(#1044);
#1044=FILL_AREA_STYLE('Steel - Satin',(#1045));
#1045=FILL_AREA_STYLE_COLOUR('Steel - Satin',#1046);
#1046=COLOUR_RGB('Steel - Satin',0.627450980392157,0.627450980392157,0.627450980392157);
ENDSEC;
END-ISO-10303-21;
